<svg width="15" height="16" viewBox="0 0 15 16" fill="none" xmlns="http://www.w3.org/2000/svg">
<g clip-path="url(#clip0_13682_1230)">
<mask id="mask0_13682_1230" style="mask-type:luminance" maskUnits="userSpaceOnUse" x="0" y="8" width="15" height="8">
<path fill-rule="evenodd" clip-rule="evenodd" d="M5.53062 8H9.49618C11.0075 8 12.3831 8.62403 13.3812 9.62761C14.3794 10.6312 15 12.0137 15 13.5596V15.377V16H14.4064H0.620727H0V15.377V13.5596C0 12.0137 0.620727 10.6312 1.61882 9.62761C2.61691 8.62403 3.99254 8 5.53062 8ZM9.49618 9.24773H5.53062C4.34376 9.24773 3.26444 9.73666 2.48174 10.4951C1.72685 11.2813 1.24128 12.3662 1.24128 13.5596V14.7796H13.7862V13.5596C13.7862 12.3662 13.3006 11.2813 12.5183 10.4951C11.7356 9.73665 10.6837 9.24773 9.49618 9.24773Z" fill="white"/>
</mask>
<g mask="url(#mask0_13682_1230)">
<mask id="mask1_13682_1230" style="mask-type:alpha" maskUnits="userSpaceOnUse" x="-559" y="-37" width="854" height="3369">
<path d="M-558.745 3331.82H294.997V-36.23H-558.745V3331.82Z" fill="black"/>
</mask>
<g mask="url(#mask1_13682_1230)">
<path d="M-3.125 4.81134H18.1246V19.1889H-3.125V4.81134Z" fill="#151515"/>
</g>
</g>
<mask id="mask2_13682_1230" style="mask-type:luminance" maskUnits="userSpaceOnUse" x="3" y="0" width="9" height="8">
<path fill-rule="evenodd" clip-rule="evenodd" d="M7.48611 0C8.63118 0 9.6644 0.436847 10.3902 1.17415C11.1447 1.88444 11.591 2.89388 11.591 3.98665C11.591 5.10579 11.1447 6.11621 10.3902 6.82617C9.6644 7.56315 8.63119 8 7.48611 8C6.36867 8 5.33562 7.56315 4.60985 6.82617C3.85546 6.11621 3.40918 5.10579 3.40918 3.98665C3.40918 2.89388 3.85546 1.88444 4.60985 1.17415C5.33562 0.436847 6.36867 0 7.48611 0ZM9.49636 2.04818C8.99365 1.52865 8.26788 1.22885 7.48569 1.22885C6.70367 1.22885 6.00553 1.52866 5.50283 2.04818C4.97232 2.5394 4.66504 3.22168 4.66504 3.98666C4.66504 4.77865 4.97232 5.46094 5.50283 5.95215C6.00553 6.47136 6.70367 6.77181 7.48569 6.77181C8.26789 6.77181 8.99365 6.47136 9.49636 5.95215C9.99906 5.46094 10.3343 4.77865 10.3343 3.98666C10.3343 3.22168 9.99906 2.53939 9.49636 2.04818Z" fill="white"/>
</mask>
<g mask="url(#mask2_13682_1230)">
<mask id="mask3_13682_1230" style="mask-type:alpha" maskUnits="userSpaceOnUse" x="-579" y="-36" width="885" height="3392">
<path d="M-578.64 3355.25H305.078V-35.9607H-578.64L-578.64 3355.25Z" fill="black"/>
</mask>
<g mask="url(#mask3_13682_1230)">
<path d="M0.173828 -3.21069H14.8249V11.2115H0.173828V-3.21069Z" fill="#151515"/>
</g>
</g>
</g>
<defs>
<clipPath id="clip0_13682_1230">
<rect width="15" height="16" fill="white"/>
</clipPath>
</defs>
</svg>
