<svg width="14" height="13" viewBox="0 0 14 13" fill="none" xmlns="http://www.w3.org/2000/svg">
<path id="Path 6308" fill-rule="evenodd" clip-rule="evenodd" d="M7.5547 10.3698C7.2188 10.1459 6.7812 10.1459 6.4453 10.3698L4.13314 11.9112C3.2799 12.4801 2.22541 11.5492 2.68401 10.632L3.63847 8.72307C3.84934 8.30131 3.73694 7.78955 3.36873 7.49499L1.22609 5.78087C0.487949 5.19036 0.905503 4 1.85078 4H4.27924C4.70967 4 5.09181 3.72457 5.22792 3.31623L6.05132 0.84605C6.35522 -0.0656462 7.64478 -0.0656462 7.94868 0.84605L8.77208 3.31623C8.90819 3.72457 9.29033 4 9.72076 4H12.1492C13.0945 4 13.5121 5.19036 12.7739 5.78087L10.6313 7.49499C10.2631 7.78955 10.1507 8.30131 10.3615 8.72307L11.316 10.632C11.7746 11.5492 10.7201 12.4801 9.86686 11.9112L7.5547 10.3698Z" fill="#D62E55"/>
</svg>
