<svg width="20" height="20" viewBox="0 0 20 20" fill="none" xmlns="http://www.w3.org/2000/svg">
<path d="M15.8542 7.74426C15.7302 7.46355 15.5294 7.22519 15.2758 7.05776C15.0222 6.89033 14.7265 6.80094 14.4242 6.80029H13.0021L14.0471 4.19238C14.1404 3.95292 14.1756 3.69405 14.1496 3.43778C14.1236 3.18151 14.0372 2.93542 13.8978 2.72043C13.7488 2.49771 13.5483 2.31562 13.3141 2.19009C13.0799 2.06457 12.819 1.99946 12.5543 2.00046H9.14441C8.82213 1.99262 8.50528 2.0859 8.23683 2.26764C7.96838 2.44938 7.76133 2.71079 7.64375 3.01642L5.10599 9.4162C5.01512 9.6552 4.98196 9.91292 5.0093 10.1677C5.03665 10.4224 5.1237 10.6668 5.26313 10.8802C5.41218 11.1029 5.6126 11.285 5.84683 11.4105C6.08106 11.536 6.34196 11.6011 6.60665 11.6001H8.77514L7.35305 16.9919C7.30567 17.1679 7.3188 17.3551 7.39025 17.5224C7.4617 17.6897 7.58719 17.8272 7.74589 17.9119C7.86841 17.9717 8.00287 18.0019 8.13873 17.9999C8.25222 17.9999 8.36436 17.9749 8.46744 17.9266C8.57052 17.8782 8.66209 17.8077 8.73585 17.7199L15.6499 9.4242C15.8348 9.19165 15.952 8.91095 15.9881 8.61399C16.0242 8.31703 15.9778 8.01572 15.8542 7.74426Z" fill="black"/>
</svg>
