<svg width="15" height="17" viewBox="0 0 15 17" fill="none" xmlns="http://www.w3.org/2000/svg">
<path fill-rule="evenodd" clip-rule="evenodd" d="M1.16561 3.53947C0.961994 3.53947 0.79454 3.69732 0.78502 3.89651L0.2522 14.9026C0.233173 15.2766 0.33784 15.5829 0.562381 15.8159C0.844013 16.1072 1.28549 16.25 1.91155 16.25H12.5869C13.213 16.25 13.6545 16.1072 13.938 15.814C14.1607 15.5829 14.2653 15.2747 14.2482 14.9008L13.7173 3.89651C13.7078 3.69544 13.5403 3.53947 13.3367 3.53947H1.16561ZM12.9764 4.29114L13.4901 14.9384C13.5016 15.1808 13.4178 15.2672 13.3893 15.2973C13.2999 15.3894 13.0886 15.5002 12.5901 15.5002H1.91467C1.41611 15.5002 1.20489 15.3912 1.11545 15.2973C1.08691 15.2691 1.00317 15.1808 1.01459 14.9402L1.53028 4.29302H12.9764V4.29114ZM7.25076 0.25C5.57809 0.25 4.2175 1.59923 4.2175 3.25851H4.97866C4.97866 2.01451 5.99863 1.00165 7.25076 1.00165C8.50288 1.00165 9.52284 2.01451 9.52284 3.25851H10.284C10.284 1.59922 8.92342 0.25 7.25075 0.25H7.25076Z" fill="#151515"/>
<path d="M0.78502 3.89651L1.03473 3.90844L1.03473 3.9086L0.78502 3.89651ZM0.252199 14.9026L0.501907 14.9147L0.501877 14.9153L0.252199 14.9026ZM0.56238 15.8159L0.382656 15.9897L0.38236 15.9894L0.56238 15.8159ZM13.938 15.814L14.1181 15.9875L14.1177 15.9878L13.938 15.814ZM14.2482 14.9008L14.4979 14.8887L14.4979 14.8893L14.2482 14.9008ZM13.7173 3.89651L13.4676 3.90855L13.4676 3.90832L13.7173 3.89651ZM12.9764 4.29114H12.7264L13.2261 4.27909L12.9764 4.29114ZM13.4901 14.9384L13.7399 14.9263L13.7399 14.9266L13.4901 14.9384ZM13.3893 15.2973L13.5706 15.4694L13.5686 15.4715L13.3893 15.2973ZM1.11545 15.2973L1.2912 15.1193L1.29652 15.1249L1.11545 15.2973ZM1.01459 14.9402L0.764874 14.9284L0.764886 14.9282L1.01459 14.9402ZM1.53028 4.29302L1.28057 4.28092L1.2921 4.04302H1.53028V4.29302ZM12.9764 4.29302H13.2264V4.54302H12.9764V4.29302ZM4.2175 3.25851V3.50851H3.9675V3.25851H4.2175ZM4.97866 3.25851H5.22866V3.50851H4.97866V3.25851ZM9.52284 3.25851V3.50851H9.27284V3.25851H9.52284ZM10.284 3.25851H10.534V3.50851H10.284V3.25851ZM1.16561 3.53947V3.78947C1.09205 3.78947 1.03772 3.84588 1.03473 3.90844L0.78502 3.89651L0.535305 3.88457C0.551354 3.54876 0.831942 3.28947 1.16561 3.28947V3.53947ZM0.78502 3.89651L1.03473 3.9086L0.501907 14.9147L0.252199 14.9026L0.00249195 14.8906L0.535312 3.88442L0.78502 3.89651ZM0.252199 14.9026L0.501877 14.9153C0.485785 15.2316 0.573146 15.4668 0.742399 15.6424L0.56238 15.8159L0.38236 15.9894C0.102534 15.699 -0.0194407 15.3216 0.00252247 14.8899L0.252199 14.9026ZM0.56238 15.8159L0.742104 15.6421C0.956527 15.8639 1.3175 16 1.91155 16V16.25V16.5C1.25348 16.5 0.7315 16.3505 0.382656 15.9897L0.56238 15.8159ZM1.91155 16.25V16H12.5869V16.25V16.5H1.91155V16.25ZM12.5869 16.25V16C13.1807 16 13.5419 15.864 13.7583 15.6402L13.938 15.814L14.1177 15.9878C13.7671 16.3503 13.2453 16.5 12.5869 16.5V16.25ZM13.938 15.814L13.758 15.6406C13.925 15.4672 14.013 15.23 13.9985 14.9122L14.2482 14.9008L14.4979 14.8893C14.5176 15.3194 14.3963 15.6986 14.1181 15.9875L13.938 15.814ZM14.2482 14.9008L13.9985 14.9128L13.4676 3.90855L13.7173 3.89651L13.967 3.88446L14.4979 14.8887L14.2482 14.9008ZM13.7173 3.89651L13.4676 3.90832C13.4646 3.84488 13.4112 3.78947 13.3367 3.78947V3.53947V3.28947C13.6694 3.28947 13.951 3.546 13.967 3.88469L13.7173 3.89651ZM13.3367 3.53947V3.78947H1.16561V3.53947V3.28947H13.3367V3.53947ZM12.9764 4.29114L13.2261 4.27909L13.7399 14.9263L13.4901 14.9384L13.2404 14.9504L12.7267 4.30319L12.9764 4.29114ZM13.4901 14.9384L13.7399 14.9266C13.747 15.0784 13.725 15.1982 13.6857 15.2932C13.6451 15.3909 13.5924 15.4464 13.5706 15.4694L13.3893 15.2973L13.208 15.1252C13.2145 15.1183 13.2151 15.1175 13.2163 15.1159C13.2173 15.1144 13.2202 15.1102 13.2238 15.1017C13.2305 15.0853 13.2447 15.0407 13.2404 14.9501L13.4901 14.9384ZM13.3893 15.2973L13.5686 15.4715C13.4101 15.6346 13.1163 15.7502 12.5901 15.7502V15.5002V15.2502C13.061 15.2502 13.1896 15.1441 13.21 15.1231L13.3893 15.2973ZM12.5901 15.5002V15.7502H1.91467V15.5002V15.2502H12.5901V15.5002ZM1.91467 15.5002V15.7502C1.3906 15.7502 1.0941 15.6374 0.934374 15.4697L1.11545 15.2973L1.29652 15.1249C1.31567 15.145 1.44162 15.2502 1.91467 15.2502V15.5002ZM1.11545 15.2973L0.939775 15.4752C0.911971 15.4477 0.859452 15.3915 0.819086 15.2941C0.779794 15.1993 0.757699 15.0795 0.764874 14.9284L1.01459 14.9402L1.26431 14.9521C1.26007 15.0415 1.27413 15.0861 1.28098 15.1027C1.28676 15.1166 1.29038 15.1187 1.29112 15.1194L1.11545 15.2973ZM1.01459 14.9402L0.764886 14.9282L1.28057 4.28092L1.53028 4.29302L1.77999 4.30511L1.2643 14.9523L1.01459 14.9402ZM1.53028 4.29302V4.04302H12.9764V4.29302V4.54302H1.53028V4.29302ZM12.9764 4.29302H12.7264V4.29114H12.9764H13.2264V4.29302H12.9764ZM7.25076 0.25V0.5C5.71421 0.5 4.4675 1.73924 4.4675 3.25851H4.2175H3.9675C3.9675 1.45921 5.44197 0 7.25076 0V0.25ZM4.2175 3.25851V3.00851H4.97866V3.25851V3.50851H4.2175V3.25851ZM4.97866 3.25851H4.72866C4.72866 1.87484 5.86217 0.751653 7.25076 0.751653V1.00165V1.25165C6.13509 1.25165 5.22866 2.15419 5.22866 3.25851H4.97866ZM7.25076 1.00165V0.751653C8.63935 0.751653 9.77284 1.87484 9.77284 3.25851H9.52284H9.27284C9.27284 2.15419 8.36642 1.25165 7.25076 1.25165V1.00165ZM9.52284 3.25851V3.00851H10.284V3.25851V3.50851H9.52284V3.25851ZM10.284 3.25851H10.034C10.034 1.73923 8.7873 0.5 7.25075 0.5V0.25V0C9.05954 0 10.534 1.45921 10.534 3.25851H10.284ZM7.25075 0.25V0H7.25076V0.25V0.5H7.25075V0.25Z" fill="#151515"/>
</svg>
