<svg xmlns="http://www.w3.org/2000/svg" data-name="Layer 1" viewBox="0 0 638.5 118.84"><g data-name="Clearpay Logo Black"><path d="m507.04 27.59-43.64 90h-18.08l16.31-33.63-25.62-56.4h18.57l16.47 37.78 18-37.78ZM340.97 59.55c0-10.33-7.8-18.3-17.38-18.3s-17.34 7.7-17.34 18.3 7.8 18.3 17.38 18.3 17.38-8 17.38-18.3m-50.68 58.07v-90h15.72v8.29a25.4 25.4 0 0 1 20.2-9.49c17.27 0 30.84 14.21 30.84 33s-13.83 33.1-31.21 33.1a24.72 24.72 0 0 1-19.32-8.56v33.63h-16.2ZM413.78 59.55c0-10.76-7.8-18.3-17.38-18.3s-17.38 7.7-17.38 18.3 7.8 18.3 17.38 18.3 17.38-7.59 17.38-18.3m.11 32v-8.29a25.6 25.6 0 0 1-20.18 9.31c-17.54 0-30.84-14-30.84-33 0-18.78 13.83-33.1 31.21-33.1a25.56 25.56 0 0 1 19.8 9.2V27.6h15.71v63.92ZM261.97 33.83a15.81 15.81 0 0 1 13.83-7.41 15.66 15.66 0 0 1 6.89 1.45v16.31s-5.92-3.66-11.35-2.91-8.88 5.7-8.88 12.38v37.87h-16.21V27.59h15.71v6.24ZM629.1 23.98l-18.62-10.66L591.59 2.5a18.76 18.76 0 0 0-28.09 16.25v2.42a3.64 3.64 0 0 0 1.88 3.23l8.77 5a3.63 3.63 0 0 0 5.44-3.18v-5.76a3.71 3.71 0 0 1 5.54-3.23l17.22 9.9 17.17 9.85a3.69 3.69 0 0 1 0 6.4l-17.17 9.85-17.22 9.9a3.71 3.71 0 0 1-5.54-3.23v-2.85A18.74 18.74 0 0 0 551.5 40.8l-18.89 10.82-18.62 10.66a18.79 18.79 0 0 0 0 32.56l18.62 10.66 18.89 10.82a18.76 18.76 0 0 0 28.09-16.25v-2.42a3.64 3.64 0 0 0-1.88-3.23l-8.77-5a3.63 3.63 0 0 0-5.44 3.18v5.76a3.71 3.71 0 0 1-5.54 3.23l-17.22-9.9-17.17-9.85a3.69 3.69 0 0 1 0-6.4l17.17-9.85 17.22-9.9a3.71 3.71 0 0 1 5.54 3.23v2.85a18.74 18.74 0 0 0 28.09 16.25l18.89-10.82 18.62-10.66a18.79 18.79 0 0 0 0-32.56ZM65.55 67.68C62.11 82.37 49.46 92.49 33.1 92.49c-18.89 0-33.1-14.21-33.1-33s14.42-33.07 33.37-33.07c16 0 28.47 10.12 32.07 24.54H48.81a17.38 17.38 0 0 0-15.34-9.58c-9.47 0-17.38 7.8-17.38 18.14S24 77.66 33.47 77.66a16.76 16.76 0 0 0 15.44-10h16.64ZM73.03 91.42V1.27h16.09v90.15ZM113.33 63.75c1.13 9.47 7.91 14.8 16.47 14.8a16.88 16.88 0 0 0 15.07-8.29h16.47c-3.82 13.56-16 22.23-32 22.23-19.32 0-32.83-13.56-32.83-32.83s14.35-33.24 33.24-33.24c19.05 0 32.83 14 32.83 33.2a20.29 20.29 0 0 1-.38 4.09Zm32.07-10c-1.15-8.33-7.9-13.33-15.81-13.33s-14.42 4.84-16.09 13.29ZM220.05 91.42v-8.29a25.52 25.52 0 0 1-20.18 9.31c-17.49 0-30.78-14-30.78-33 0-18.78 13.78-33.1 31.16-33.1a25.39 25.39 0 0 1 19.8 9.2v-8.07h15.71v63.95h-15.71Zm-.16-32c0-10.71-7.8-18.3-17.38-18.3s-17.38 7.64-17.38 18.3c0 10.49 7.8 18.3 17.38 18.3s17.38-7.46 17.38-18.22Z"/></g></svg>