<svg xmlns="http://www.w3.org/2000/svg" width="18" height="10" viewBox="0 0 18 10" fill="none">
  <g clip-path="url(#clip0_8467_6596)">
    <mask id="path-1-outside-1_8467_6596" maskUnits="userSpaceOnUse" x="-0.976562" y="-0.675293" width="20" height="11" fill="black">
      <rect fill="white" x="-0.976562" y="-0.675293" width="20" height="11"/>
      <path d="M1.63175 2.13873H5.46926C5.51885 2.13873 5.56642 2.11903 5.60149 2.08396C5.63657 2.04889 5.65627 2.00132 5.65627 1.95172C5.65627 1.90212 5.63657 1.85455 5.60149 1.81948C5.56642 1.78441 5.51885 1.76471 5.46926 1.76471H1.63175C1.58215 1.76471 1.53458 1.78441 1.49951 1.81948C1.46444 1.85455 1.44474 1.90212 1.44474 1.95172C1.44474 2.00132 1.46444 2.04889 1.49951 2.08396C1.53458 2.11903 1.58215 2.13873 1.63175 2.13873ZM3.73752 1.95172V0.93811L3.7637 0.848344L3.8198 0.769799L3.90209 0.717435C3.93207 0.706304 3.96363 0.699992 3.99559 0.698734H12.946C13.014 0.69772 13.0798 0.723206 13.1293 0.769799C13.1523 0.791524 13.1707 0.817583 13.1835 0.846472C13.1964 0.87536 13.2034 0.906506 13.2041 0.93811V7.72668C13.2034 7.75829 13.1964 7.78943 13.1835 7.81832C13.1707 7.84721 13.1523 7.87327 13.1293 7.89499C13.0798 7.94159 13.014 7.96707 12.946 7.96606C12.8964 7.96606 12.8489 7.98576 12.8138 8.02083C12.7787 8.05591 12.759 8.10347 12.759 8.15307C12.759 8.20267 12.7787 8.25024 12.8138 8.28531C12.8489 8.32038 12.8964 8.34009 12.946 8.34009C13.1082 8.3444 13.266 8.2869 13.3874 8.17925C13.4475 8.1233 13.4955 8.05558 13.5283 7.98029C13.5611 7.90501 13.5781 7.82377 13.5781 7.74164V0.93811C13.5782 0.855969 13.5612 0.774706 13.5284 0.699407C13.4956 0.624108 13.4476 0.556393 13.3874 0.5005C13.2683 0.387411 13.1103 0.324468 12.946 0.324708H3.99559C3.91623 0.325647 3.83768 0.34085 3.7637 0.369591C3.6883 0.399282 3.61962 0.443797 3.56172 0.5005C3.49901 0.555828 3.44812 0.623254 3.41211 0.698734C3.38094 0.774742 3.36444 0.855964 3.36349 0.93811V1.95172C3.36349 2.00132 3.38319 2.04889 3.41826 2.08396C3.45334 2.11903 3.5009 2.13873 3.5505 2.13873C3.6001 2.13873 3.64767 2.11903 3.68274 2.08396C3.71781 2.04889 3.73752 2.00132 3.73752 1.95172ZM12.946 7.96606H8.92526C8.87566 7.96606 8.82809 7.98576 8.79302 8.02083C8.75795 8.05591 8.73824 8.10347 8.73824 8.15307C8.73824 8.20267 8.75795 8.25024 8.79302 8.28531C8.82809 8.32038 8.87566 8.34009 8.92526 8.34009H12.946C12.9956 8.34009 13.0432 8.32038 13.0783 8.28531C13.1133 8.25024 13.133 8.20267 13.133 8.15307C13.133 8.10347 13.1133 8.05591 13.0783 8.02083C13.0432 7.98576 12.9956 7.96606 12.946 7.96606ZM12.946 8.34009H14.3636C14.4132 8.34009 14.4608 8.32038 14.4958 8.28531C14.5309 8.25024 14.5506 8.20267 14.5506 8.15307C14.5506 8.10347 14.5309 8.05591 14.4958 8.02083C14.4608 7.98576 14.4132 7.96606 14.3636 7.96606H12.946C12.8964 7.96606 12.8489 7.98576 12.8138 8.02083C12.7787 8.05591 12.759 8.10347 12.759 8.15307C12.759 8.20267 12.7787 8.25024 12.8138 8.28531C12.8489 8.32038 12.8964 8.34009 12.946 8.34009ZM5.91061 7.96606H5.32713C4.81845 7.96606 4.44816 7.99972 4.20505 7.99972C4.10934 8.00369 4.01357 7.99361 3.92079 7.9698C3.88888 7.96277 3.86005 7.94574 3.8385 7.92118C3.7911 7.85699 3.76377 7.7802 3.75996 7.7005C3.73517 7.50956 3.72517 7.31698 3.73003 7.1245V6.18944C3.72917 6.14039 3.70981 6.09348 3.67582 6.0581C3.64183 6.02273 3.59574 6.0015 3.54676 5.99868C3.52189 5.99818 3.49717 6.00265 3.47405 6.01183C3.45092 6.02101 3.42986 6.0347 3.4121 6.05212C3.39434 6.06953 3.38022 6.09032 3.37059 6.11325C3.36096 6.13619 3.356 6.16082 3.35601 6.1857V7.1245C3.35676 7.31189 3.36798 7.49927 3.38967 7.68554C3.40127 7.79176 3.42633 7.89612 3.46448 7.99598C3.49221 8.0643 3.53377 8.12615 3.58655 8.17765C3.63933 8.22914 3.70219 8.26916 3.77118 8.2952C3.91331 8.3427 4.06292 8.3644 4.21253 8.35879C4.48931 8.35879 4.84463 8.32512 5.33461 8.32512H5.89939C5.92394 8.32635 5.9485 8.32273 5.97166 8.31447C5.99482 8.3062 6.01613 8.29346 6.03436 8.27696C6.0526 8.26046 6.0674 8.24054 6.07794 8.21832C6.08847 8.1961 6.09452 8.17202 6.09575 8.14746C6.09698 8.1229 6.09336 8.09834 6.08509 8.07518C6.07683 8.05202 6.06408 8.03072 6.04759 8.01249C6.03109 7.99425 6.01116 7.97944 5.98894 7.96891C5.96672 7.95838 5.94265 7.95233 5.91809 7.9511L5.91061 7.96606ZM4.56785 5.98372H0.932321C0.882722 5.98372 0.835154 6.00342 0.800082 6.0385C0.765011 6.07357 0.745308 6.12114 0.745308 6.17073C0.745308 6.22033 0.765011 6.2679 0.800082 6.30297C0.835154 6.33804 0.882722 6.35775 0.932321 6.35775H4.56785C4.61745 6.35775 4.66502 6.33804 4.70009 6.30297C4.73516 6.2679 4.75487 6.22033 4.75487 6.17073C4.75487 6.12114 4.73516 6.07357 4.70009 6.0385C4.66502 6.00342 4.61745 5.98372 4.56785 5.98372ZM7.46655 4.61105H2.47705C2.42775 4.612 2.38074 4.63201 2.34587 4.66688C2.311 4.70175 2.29099 4.74876 2.29003 4.79806C2.29003 4.84766 2.30974 4.89523 2.34481 4.9303C2.37988 4.96537 2.42745 4.98507 2.47705 4.98507H7.46655C7.51615 4.98507 7.56372 4.96537 7.59879 4.9303C7.63386 4.89523 7.65357 4.84766 7.65357 4.79806C7.65357 4.74846 7.63386 4.70089 7.59879 4.66582C7.56372 4.63075 7.51615 4.61105 7.46655 4.61105ZM2.08432 3.17105H0.21045C0.185892 3.17105 0.161573 3.17588 0.138884 3.18528C0.116194 3.19468 0.0955781 3.20845 0.0782123 3.22582C0.0608466 3.24319 0.0470713 3.2638 0.037673 3.28649C0.0282747 3.30918 0.0234375 3.3335 0.0234375 3.35806C0.0234375 3.38262 0.0282747 3.40694 0.037673 3.42963C0.0470713 3.45231 0.0608466 3.47293 0.0782123 3.4903C0.0955781 3.50766 0.116194 3.52144 0.138884 3.53084C0.161573 3.54023 0.185892 3.54507 0.21045 3.54507H2.08058C2.13018 3.54507 2.17775 3.52537 2.21282 3.4903C2.24789 3.45522 2.26759 3.40766 2.26759 3.35806C2.26759 3.30846 2.24789 3.26089 2.21282 3.22582C2.17775 3.19075 2.13018 3.17105 2.08058 3.17105H2.08432ZM3.36349 2.91297V4.7831C3.36349 4.8327 3.38319 4.88026 3.41826 4.91534C3.45334 4.95041 3.5009 4.97011 3.5505 4.97011C3.6001 4.97011 3.64767 4.95041 3.68274 4.91534C3.71781 4.88026 3.73752 4.8327 3.73752 4.7831V2.91297C3.73752 2.86337 3.71781 2.8158 3.68274 2.78073C3.64767 2.74566 3.6001 2.72595 3.5505 2.72595C3.5009 2.72595 3.45334 2.74566 3.41826 2.78073C3.38319 2.8158 3.36349 2.86337 3.36349 2.91297ZM13.3911 3.09998H15.5343C15.6383 3.09886 15.74 3.12616 15.8298 3.17853C15.9195 3.22565 15.9951 3.29672 16.0467 3.38424L16.2075 3.28699L16.0355 3.36554C16.0953 3.49645 16.2188 3.69468 16.3759 3.95276C16.6115 4.32679 16.9257 4.83172 17.1763 5.27681C17.3034 5.49749 17.4119 5.71068 17.4904 5.88273C17.5484 6.00018 17.5866 6.1266 17.6027 6.25676V7.80523C17.6033 7.82514 17.5989 7.8449 17.5897 7.86258C17.5805 7.88027 17.567 7.8953 17.5503 7.90621C17.4957 7.94091 17.4317 7.95789 17.367 7.95484H17.3109C17.2623 7.94881 17.2132 7.96215 17.1742 7.99196C17.1353 8.02178 17.1096 8.06569 17.1028 8.11425C17.0959 8.1628 17.1084 8.21211 17.1375 8.25156C17.1667 8.291 17.2101 8.31742 17.2586 8.32512C17.2945 8.32886 17.3311 8.32886 17.367 8.32512C17.5092 8.32774 17.6487 8.28772 17.7672 8.20918C17.832 8.16358 17.8848 8.10308 17.9213 8.03277C17.9577 7.96247 17.9767 7.88442 17.9767 7.80523V6.30912H17.7897L17.9729 6.34279V6.26424C17.9676 6.15136 17.9435 6.04015 17.9019 5.9351C17.6758 5.40328 17.4029 4.8926 17.0865 4.40907C16.9219 4.14351 16.7611 3.88918 16.6339 3.66102C16.5068 3.43286 16.4058 3.28699 16.3721 3.20845C16.2854 3.06503 16.163 2.94655 16.0168 2.8646C15.8706 2.78266 15.7056 2.74004 15.538 2.74092H13.3911C13.3415 2.74092 13.294 2.76062 13.2589 2.79569C13.2238 2.83076 13.2041 2.87833 13.2041 2.92793C13.2041 2.97753 13.2238 3.0251 13.2589 3.06017C13.294 3.09524 13.3415 3.11494 13.3911 3.11494V3.09998ZM6.04526 8.15307H5.85824C5.85655 8.37107 5.90254 8.5868 5.99299 8.78515C6.08344 8.9835 6.21617 9.15967 6.38188 9.30133C6.69199 9.54584 7.07539 9.6788 7.47029 9.6788C7.8652 9.6788 8.2486 9.54584 8.55871 9.30133C8.8037 9.09057 8.97388 8.80615 9.0438 8.49063C9.11371 8.1751 9.07961 7.84542 8.94658 7.55089C8.85666 7.35357 8.72421 7.17858 8.55871 7.03847C8.2486 6.79397 7.8652 6.661 7.47029 6.661C7.07539 6.661 6.69199 6.79397 6.38188 7.03847C6.21786 7.1797 6.08644 7.35483 5.99668 7.55178C5.90692 7.74873 5.86097 7.96282 5.86198 8.17925H6.23601C6.23205 8.01674 6.26344 7.85531 6.32802 7.70613C6.3926 7.55695 6.48883 7.42358 6.61003 7.31525C6.85364 7.12842 7.15207 7.02715 7.45907 7.02715C7.76608 7.02715 8.06451 7.12842 8.30811 7.31525C8.42932 7.42358 8.52555 7.55695 8.59013 7.70613C8.65471 7.85531 8.6861 8.01674 8.68214 8.17925C8.68735 8.34139 8.6565 8.50266 8.59182 8.65143C8.52714 8.80019 8.43024 8.93274 8.30811 9.03951C8.06556 9.22878 7.76673 9.33157 7.45907 9.33157C7.15142 9.33157 6.85259 9.22878 6.61003 9.03951C6.48791 8.93274 6.39101 8.80019 6.32633 8.65143C6.26164 8.50266 6.2308 8.34139 6.23601 8.17925L6.04526 8.15307ZM14.3823 8.15307H14.1953C14.197 8.36635 14.2443 8.57679 14.3339 8.77031C14.4236 8.96383 14.5536 9.13595 14.7152 9.27515C15.0259 9.51995 15.4099 9.65307 15.8055 9.65307C16.201 9.65307 16.5851 9.51995 16.8958 9.27515C17.0574 9.13597 17.1874 8.96385 17.277 8.77033C17.3667 8.5768 17.414 8.36635 17.4156 8.15307C17.4167 7.93663 17.3707 7.72255 17.2809 7.5256C17.1912 7.32865 17.0598 7.15352 16.8958 7.01229C16.5851 6.76749 16.201 6.63437 15.8055 6.63437C15.4099 6.63437 15.0259 6.76749 14.7152 7.01229C14.5512 7.15352 14.4197 7.32865 14.33 7.5256C14.2402 7.72255 14.1943 7.93663 14.1953 8.15307H14.5693C14.5638 7.99035 14.5945 7.82842 14.6591 7.679C14.7238 7.52958 14.8209 7.3964 14.9433 7.28907C15.1864 7.10103 15.485 6.99901 15.7924 6.99901C16.0997 6.99901 16.3983 7.10103 16.6414 7.28907C16.7621 7.39698 16.8581 7.52975 16.9226 7.67824C16.9872 7.82674 17.0189 7.98744 17.0154 8.14933C17.0203 8.31142 16.9893 8.4726 16.9247 8.62131C16.86 8.77003 16.7633 8.90262 16.6414 9.00959C16.3994 9.19855 16.1012 9.30119 15.7942 9.30119C15.4872 9.30119 15.189 9.19855 14.9471 9.00959C14.8252 8.90265 14.7284 8.77007 14.6637 8.62135C14.5991 8.47262 14.5681 8.31143 14.573 8.14933L14.3823 8.15307Z"/>
    </mask>
    <path d="M1.63175 2.13873H5.46926C5.51885 2.13873 5.56642 2.11903 5.60149 2.08396C5.63657 2.04889 5.65627 2.00132 5.65627 1.95172C5.65627 1.90212 5.63657 1.85455 5.60149 1.81948C5.56642 1.78441 5.51885 1.76471 5.46926 1.76471H1.63175C1.58215 1.76471 1.53458 1.78441 1.49951 1.81948C1.46444 1.85455 1.44474 1.90212 1.44474 1.95172C1.44474 2.00132 1.46444 2.04889 1.49951 2.08396C1.53458 2.11903 1.58215 2.13873 1.63175 2.13873ZM3.73752 1.95172V0.93811L3.7637 0.848344L3.8198 0.769799L3.90209 0.717435C3.93207 0.706304 3.96363 0.699992 3.99559 0.698734H12.946C13.014 0.69772 13.0798 0.723206 13.1293 0.769799C13.1523 0.791524 13.1707 0.817583 13.1835 0.846472C13.1964 0.87536 13.2034 0.906506 13.2041 0.93811V7.72668C13.2034 7.75829 13.1964 7.78943 13.1835 7.81832C13.1707 7.84721 13.1523 7.87327 13.1293 7.89499C13.0798 7.94159 13.014 7.96707 12.946 7.96606C12.8964 7.96606 12.8489 7.98576 12.8138 8.02083C12.7787 8.05591 12.759 8.10347 12.759 8.15307C12.759 8.20267 12.7787 8.25024 12.8138 8.28531C12.8489 8.32038 12.8964 8.34009 12.946 8.34009C13.1082 8.3444 13.266 8.2869 13.3874 8.17925C13.4475 8.1233 13.4955 8.05558 13.5283 7.98029C13.5611 7.90501 13.5781 7.82377 13.5781 7.74164V0.93811C13.5782 0.855969 13.5612 0.774706 13.5284 0.699407C13.4956 0.624108 13.4476 0.556393 13.3874 0.5005C13.2683 0.387411 13.1103 0.324468 12.946 0.324708H3.99559C3.91623 0.325647 3.83768 0.34085 3.7637 0.369591C3.6883 0.399282 3.61962 0.443797 3.56172 0.5005C3.49901 0.555828 3.44812 0.623254 3.41211 0.698734C3.38094 0.774742 3.36444 0.855964 3.36349 0.93811V1.95172C3.36349 2.00132 3.38319 2.04889 3.41826 2.08396C3.45334 2.11903 3.5009 2.13873 3.5505 2.13873C3.6001 2.13873 3.64767 2.11903 3.68274 2.08396C3.71781 2.04889 3.73752 2.00132 3.73752 1.95172ZM12.946 7.96606H8.92526C8.87566 7.96606 8.82809 7.98576 8.79302 8.02083C8.75795 8.05591 8.73824 8.10347 8.73824 8.15307C8.73824 8.20267 8.75795 8.25024 8.79302 8.28531C8.82809 8.32038 8.87566 8.34009 8.92526 8.34009H12.946C12.9956 8.34009 13.0432 8.32038 13.0783 8.28531C13.1133 8.25024 13.133 8.20267 13.133 8.15307C13.133 8.10347 13.1133 8.05591 13.0783 8.02083C13.0432 7.98576 12.9956 7.96606 12.946 7.96606ZM12.946 8.34009H14.3636C14.4132 8.34009 14.4608 8.32038 14.4958 8.28531C14.5309 8.25024 14.5506 8.20267 14.5506 8.15307C14.5506 8.10347 14.5309 8.05591 14.4958 8.02083C14.4608 7.98576 14.4132 7.96606 14.3636 7.96606H12.946C12.8964 7.96606 12.8489 7.98576 12.8138 8.02083C12.7787 8.05591 12.759 8.10347 12.759 8.15307C12.759 8.20267 12.7787 8.25024 12.8138 8.28531C12.8489 8.32038 12.8964 8.34009 12.946 8.34009ZM5.91061 7.96606H5.32713C4.81845 7.96606 4.44816 7.99972 4.20505 7.99972C4.10934 8.00369 4.01357 7.99361 3.92079 7.9698C3.88888 7.96277 3.86005 7.94574 3.8385 7.92118C3.7911 7.85699 3.76377 7.7802 3.75996 7.7005C3.73517 7.50956 3.72517 7.31698 3.73003 7.1245V6.18944C3.72917 6.14039 3.70981 6.09348 3.67582 6.0581C3.64183 6.02273 3.59574 6.0015 3.54676 5.99868C3.52189 5.99818 3.49717 6.00265 3.47405 6.01183C3.45092 6.02101 3.42986 6.0347 3.4121 6.05212C3.39434 6.06953 3.38022 6.09032 3.37059 6.11325C3.36096 6.13619 3.356 6.16082 3.35601 6.1857V7.1245C3.35676 7.31189 3.36798 7.49927 3.38967 7.68554C3.40127 7.79176 3.42633 7.89612 3.46448 7.99598C3.49221 8.0643 3.53377 8.12615 3.58655 8.17765C3.63933 8.22914 3.70219 8.26916 3.77118 8.2952C3.91331 8.3427 4.06292 8.3644 4.21253 8.35879C4.48931 8.35879 4.84463 8.32512 5.33461 8.32512H5.89939C5.92394 8.32635 5.9485 8.32273 5.97166 8.31447C5.99482 8.3062 6.01613 8.29346 6.03436 8.27696C6.0526 8.26046 6.0674 8.24054 6.07794 8.21832C6.08847 8.1961 6.09452 8.17202 6.09575 8.14746C6.09698 8.1229 6.09336 8.09834 6.08509 8.07518C6.07683 8.05202 6.06408 8.03072 6.04759 8.01249C6.03109 7.99425 6.01116 7.97944 5.98894 7.96891C5.96672 7.95838 5.94265 7.95233 5.91809 7.9511L5.91061 7.96606ZM4.56785 5.98372H0.932321C0.882722 5.98372 0.835154 6.00342 0.800082 6.0385C0.765011 6.07357 0.745308 6.12114 0.745308 6.17073C0.745308 6.22033 0.765011 6.2679 0.800082 6.30297C0.835154 6.33804 0.882722 6.35775 0.932321 6.35775H4.56785C4.61745 6.35775 4.66502 6.33804 4.70009 6.30297C4.73516 6.2679 4.75487 6.22033 4.75487 6.17073C4.75487 6.12114 4.73516 6.07357 4.70009 6.0385C4.66502 6.00342 4.61745 5.98372 4.56785 5.98372ZM7.46655 4.61105H2.47705C2.42775 4.612 2.38074 4.63201 2.34587 4.66688C2.311 4.70175 2.29099 4.74876 2.29003 4.79806C2.29003 4.84766 2.30974 4.89523 2.34481 4.9303C2.37988 4.96537 2.42745 4.98507 2.47705 4.98507H7.46655C7.51615 4.98507 7.56372 4.96537 7.59879 4.9303C7.63386 4.89523 7.65357 4.84766 7.65357 4.79806C7.65357 4.74846 7.63386 4.70089 7.59879 4.66582C7.56372 4.63075 7.51615 4.61105 7.46655 4.61105ZM2.08432 3.17105H0.21045C0.185892 3.17105 0.161573 3.17588 0.138884 3.18528C0.116194 3.19468 0.0955781 3.20845 0.0782123 3.22582C0.0608466 3.24319 0.0470713 3.2638 0.037673 3.28649C0.0282747 3.30918 0.0234375 3.3335 0.0234375 3.35806C0.0234375 3.38262 0.0282747 3.40694 0.037673 3.42963C0.0470713 3.45231 0.0608466 3.47293 0.0782123 3.4903C0.0955781 3.50766 0.116194 3.52144 0.138884 3.53084C0.161573 3.54023 0.185892 3.54507 0.21045 3.54507H2.08058C2.13018 3.54507 2.17775 3.52537 2.21282 3.4903C2.24789 3.45522 2.26759 3.40766 2.26759 3.35806C2.26759 3.30846 2.24789 3.26089 2.21282 3.22582C2.17775 3.19075 2.13018 3.17105 2.08058 3.17105H2.08432ZM3.36349 2.91297V4.7831C3.36349 4.8327 3.38319 4.88026 3.41826 4.91534C3.45334 4.95041 3.5009 4.97011 3.5505 4.97011C3.6001 4.97011 3.64767 4.95041 3.68274 4.91534C3.71781 4.88026 3.73752 4.8327 3.73752 4.7831V2.91297C3.73752 2.86337 3.71781 2.8158 3.68274 2.78073C3.64767 2.74566 3.6001 2.72595 3.5505 2.72595C3.5009 2.72595 3.45334 2.74566 3.41826 2.78073C3.38319 2.8158 3.36349 2.86337 3.36349 2.91297ZM13.3911 3.09998H15.5343C15.6383 3.09886 15.74 3.12616 15.8298 3.17853C15.9195 3.22565 15.9951 3.29672 16.0467 3.38424L16.2075 3.28699L16.0355 3.36554C16.0953 3.49645 16.2188 3.69468 16.3759 3.95276C16.6115 4.32679 16.9257 4.83172 17.1763 5.27681C17.3034 5.49749 17.4119 5.71068 17.4904 5.88273C17.5484 6.00018 17.5866 6.1266 17.6027 6.25676V7.80523C17.6033 7.82514 17.5989 7.8449 17.5897 7.86258C17.5805 7.88027 17.567 7.8953 17.5503 7.90621C17.4957 7.94091 17.4317 7.95789 17.367 7.95484H17.3109C17.2623 7.94881 17.2132 7.96215 17.1742 7.99196C17.1353 8.02178 17.1096 8.06569 17.1028 8.11425C17.0959 8.1628 17.1084 8.21211 17.1375 8.25156C17.1667 8.291 17.2101 8.31742 17.2586 8.32512C17.2945 8.32886 17.3311 8.32886 17.367 8.32512C17.5092 8.32774 17.6487 8.28772 17.7672 8.20918C17.832 8.16358 17.8848 8.10308 17.9213 8.03277C17.9577 7.96247 17.9767 7.88442 17.9767 7.80523V6.30912H17.7897L17.9729 6.34279V6.26424C17.9676 6.15136 17.9435 6.04015 17.9019 5.9351C17.6758 5.40328 17.4029 4.8926 17.0865 4.40907C16.9219 4.14351 16.7611 3.88918 16.6339 3.66102C16.5068 3.43286 16.4058 3.28699 16.3721 3.20845C16.2854 3.06503 16.163 2.94655 16.0168 2.8646C15.8706 2.78266 15.7056 2.74004 15.538 2.74092H13.3911C13.3415 2.74092 13.294 2.76062 13.2589 2.79569C13.2238 2.83076 13.2041 2.87833 13.2041 2.92793C13.2041 2.97753 13.2238 3.0251 13.2589 3.06017C13.294 3.09524 13.3415 3.11494 13.3911 3.11494V3.09998ZM6.04526 8.15307H5.85824C5.85655 8.37107 5.90254 8.5868 5.99299 8.78515C6.08344 8.9835 6.21617 9.15967 6.38188 9.30133C6.69199 9.54584 7.07539 9.6788 7.47029 9.6788C7.8652 9.6788 8.2486 9.54584 8.55871 9.30133C8.8037 9.09057 8.97388 8.80615 9.0438 8.49063C9.11371 8.1751 9.07961 7.84542 8.94658 7.55089C8.85666 7.35357 8.72421 7.17858 8.55871 7.03847C8.2486 6.79397 7.8652 6.661 7.47029 6.661C7.07539 6.661 6.69199 6.79397 6.38188 7.03847C6.21786 7.1797 6.08644 7.35483 5.99668 7.55178C5.90692 7.74873 5.86097 7.96282 5.86198 8.17925H6.23601C6.23205 8.01674 6.26344 7.85531 6.32802 7.70613C6.3926 7.55695 6.48883 7.42358 6.61003 7.31525C6.85364 7.12842 7.15207 7.02715 7.45907 7.02715C7.76608 7.02715 8.06451 7.12842 8.30811 7.31525C8.42932 7.42358 8.52555 7.55695 8.59013 7.70613C8.65471 7.85531 8.6861 8.01674 8.68214 8.17925C8.68735 8.34139 8.6565 8.50266 8.59182 8.65143C8.52714 8.80019 8.43024 8.93274 8.30811 9.03951C8.06556 9.22878 7.76673 9.33157 7.45907 9.33157C7.15142 9.33157 6.85259 9.22878 6.61003 9.03951C6.48791 8.93274 6.39101 8.80019 6.32633 8.65143C6.26164 8.50266 6.2308 8.34139 6.23601 8.17925L6.04526 8.15307ZM14.3823 8.15307H14.1953C14.197 8.36635 14.2443 8.57679 14.3339 8.77031C14.4236 8.96383 14.5536 9.13595 14.7152 9.27515C15.0259 9.51995 15.4099 9.65307 15.8055 9.65307C16.201 9.65307 16.5851 9.51995 16.8958 9.27515C17.0574 9.13597 17.1874 8.96385 17.277 8.77033C17.3667 8.5768 17.414 8.36635 17.4156 8.15307C17.4167 7.93663 17.3707 7.72255 17.2809 7.5256C17.1912 7.32865 17.0598 7.15352 16.8958 7.01229C16.5851 6.76749 16.201 6.63437 15.8055 6.63437C15.4099 6.63437 15.0259 6.76749 14.7152 7.01229C14.5512 7.15352 14.4197 7.32865 14.33 7.5256C14.2402 7.72255 14.1943 7.93663 14.1953 8.15307H14.5693C14.5638 7.99035 14.5945 7.82842 14.6591 7.679C14.7238 7.52958 14.8209 7.3964 14.9433 7.28907C15.1864 7.10103 15.485 6.99901 15.7924 6.99901C16.0997 6.99901 16.3983 7.10103 16.6414 7.28907C16.7621 7.39698 16.8581 7.52975 16.9226 7.67824C16.9872 7.82674 17.0189 7.98744 17.0154 8.14933C17.0203 8.31142 16.9893 8.4726 16.9247 8.62131C16.86 8.77003 16.7633 8.90262 16.6414 9.00959C16.3994 9.19855 16.1012 9.30119 15.7942 9.30119C15.4872 9.30119 15.189 9.19855 14.9471 9.00959C14.8252 8.90265 14.7284 8.77007 14.6637 8.62135C14.5991 8.47262 14.5681 8.31143 14.573 8.14933L14.3823 8.15307Z" fill="black"/>
    <path d="M12.946 7.96606V7.81606C12.8567 7.81606 12.7709 7.85157 12.7077 7.91477L12.8138 8.02083L12.9199 8.1269C12.9268 8.11996 12.9362 8.11606 12.946 8.11606V7.96606ZM12.8138 8.02083L12.7077 7.91477C12.6445 7.97797 12.609 8.06369 12.609 8.15307H12.759H12.909C12.909 8.14326 12.9129 8.13384 12.9199 8.1269L12.8138 8.02083ZM12.759 8.15307H12.609C12.609 8.24245 12.6445 8.32817 12.7077 8.39138L12.8138 8.28531L12.9199 8.17924C12.9129 8.1723 12.909 8.16289 12.909 8.15307H12.759ZM12.8138 8.28531L12.7077 8.39138C12.7709 8.45458 12.8567 8.49008 12.946 8.49008V8.34009V8.19008C12.9362 8.19008 12.9268 8.18619 12.9199 8.17924L12.8138 8.28531ZM3.73752 0.93811L3.44952 0.854111L3.43752 0.895253V0.93811H3.73752ZM3.7637 0.848344L3.51958 0.673973L3.48996 0.715433L3.4757 0.764344L3.7637 0.848344ZM3.8198 0.769799L3.65874 0.5167L3.60956 0.547995L3.57568 0.595427L3.8198 0.769799ZM3.90209 0.717435L3.79769 0.436186L3.76786 0.447257L3.74102 0.464336L3.90209 0.717435ZM3.99559 0.698734V0.398501L3.98379 0.398966L3.99559 0.698734ZM12.946 0.698734V0.998767L12.9505 0.9987L12.946 0.698734ZM13.1293 0.769799L13.3355 0.551865L13.3348 0.551261L13.1293 0.769799ZM13.2041 0.93811H13.5042L13.504 0.931115L13.2041 0.93811ZM13.2041 7.72668L13.5041 7.73368V7.72668H13.2041ZM13.1293 7.89499L13.3348 8.11353L13.3355 8.11293L13.1293 7.89499ZM13.3874 8.17925L13.5865 8.40377L13.5918 8.39887L13.3874 8.17925ZM13.5781 7.74164L13.8781 7.74188V7.74164H13.5781ZM13.5781 0.93811L13.2781 0.938024V0.93811H13.5781ZM13.3874 0.5005L13.1808 0.718057L13.1832 0.720338L13.3874 0.5005ZM12.946 0.324708V0.624708L12.9465 0.624707L12.946 0.324708ZM3.99559 0.324708V0.0246867L3.99204 0.0247287L3.99559 0.324708ZM3.7637 0.369591L3.65506 0.0899479L3.65378 0.0904528L3.7637 0.369591ZM3.56172 0.5005L3.7602 0.725462L3.76606 0.720292L3.77164 0.714823L3.56172 0.5005ZM3.41211 0.698734L3.14135 0.569555L3.13773 0.577134L3.13455 0.584904L3.41211 0.698734ZM3.36349 0.93811L3.06349 0.934626V0.93811H3.36349ZM5.91061 7.96606V8.26606H6.09602L6.17893 8.10022L5.91061 7.96606ZM4.20505 7.99972V7.69946L4.19261 7.69998L4.20505 7.99972ZM3.92079 7.9698L3.99541 7.67905L3.98532 7.67682L3.92079 7.9698ZM3.8385 7.92118L3.59718 8.0994L3.60467 8.10955L3.613 8.11903L3.8385 7.92118ZM3.75996 7.7005L4.05961 7.68617L4.05903 7.67398L4.05746 7.66188L3.75996 7.7005ZM3.73003 7.1245L4.03004 7.13209V7.1245H3.73003ZM3.73003 6.18944H4.03008L4.02999 6.18416L3.73003 6.18944ZM3.54676 5.99868L3.56404 5.69897L3.55276 5.69874L3.54676 5.99868ZM3.35601 6.1857H3.65601V6.18564L3.35601 6.1857ZM3.35601 7.1245H3.05601L3.05601 7.1257L3.35601 7.1245ZM3.38967 7.68554L3.68791 7.65299L3.68766 7.65083L3.38967 7.68554ZM3.46448 7.99598L3.18417 8.10306L3.18651 8.10882L3.46448 7.99598ZM3.77118 8.2952L3.66516 8.57608L3.67608 8.57973L3.77118 8.2952ZM4.21253 8.35879V8.05858L4.20129 8.059L4.21253 8.35879ZM5.89939 8.32512L5.91437 8.0255L5.90688 8.02512H5.89939V8.32512ZM5.91809 7.9511L5.93307 7.65147L5.73738 7.64169L5.64976 7.81693L5.91809 7.9511ZM0.745308 6.17073H0.445308H0.745308ZM2.47705 4.61105V4.31099L2.47122 4.3111L2.47705 4.61105ZM2.29003 4.79806L1.99003 4.79223V4.79806H2.29003ZM0.21045 3.17105L0.21045 3.47105H0.21045V3.17105ZM0.0234375 3.35806H0.323438H0.0234375ZM0.21045 3.54507V3.24507H0.21045L0.21045 3.54507ZM13.3911 3.09998V2.79998H13.0911V3.09998H13.3911ZM15.5343 3.09998V3.4L15.5375 3.39996L15.5343 3.09998ZM15.8298 3.17853L15.6785 3.43792L15.6903 3.44415L15.8298 3.17853ZM16.0467 3.38424L15.7883 3.53664L15.9424 3.7979L16.2019 3.64096L16.0467 3.38424ZM16.2075 3.28699L16.3628 3.54371L16.083 3.01409L16.2075 3.28699ZM16.0355 3.36554L15.9109 3.09263L15.6379 3.21728L15.7626 3.49027L16.0355 3.36554ZM16.3759 3.95276L16.1196 4.10876L16.122 4.11267L16.3759 3.95276ZM17.1763 5.27681L16.9148 5.424L16.9163 5.4266L17.1763 5.27681ZM17.4904 5.88273L17.2174 6.00738L17.2214 6.01553L17.4904 5.88273ZM17.6027 6.25676H17.9027V6.2383L17.9004 6.21997L17.6027 6.25676ZM17.6027 7.80523H17.3025L17.3028 7.81553L17.6027 7.80523ZM17.5503 7.90621L17.7112 8.15948L17.7146 8.1572L17.5503 7.90621ZM17.367 7.95484L17.3812 7.65517L17.3741 7.65484H17.367V7.95484ZM17.3109 7.95484L17.2741 8.25257L17.2924 8.25484H17.3109V7.95484ZM17.2586 8.32512L17.2114 8.6214L17.2194 8.62267L17.2275 8.62351L17.2586 8.32512ZM17.367 8.32512L17.3725 8.02517L17.3542 8.02484L17.3359 8.02674L17.367 8.32512ZM17.7672 8.20918L17.933 8.45938L17.94 8.45446L17.7672 8.20918ZM17.9767 7.80523H17.6767V7.8054L17.9767 7.80523ZM17.9767 6.30912H18.2767V6.00912H17.9767V6.30912ZM17.7897 6.30912V6.00912L17.7355 6.60419L17.7897 6.30912ZM17.9729 6.34279L17.9187 6.63785L18.2729 6.70291V6.34279H17.9729ZM17.9729 6.26424H18.2729V6.25709L18.2726 6.24994L17.9729 6.26424ZM17.9019 5.9351L18.1808 5.82445L18.178 5.81773L17.9019 5.9351ZM17.0865 4.40907L16.8314 4.56715L16.8355 4.57335L17.0865 4.40907ZM16.3721 3.20845L16.6479 3.09027L16.6396 3.07109L16.6288 3.05324L16.3721 3.20845ZM15.538 2.74092V3.04092L15.5396 3.04091L15.538 2.74092ZM13.3911 3.11494V3.41494H13.6911V3.11494H13.3911ZM6.04526 8.15307L6.08605 7.85586L6.06575 7.85307H6.04526V8.15307ZM5.85824 8.15307V7.85307H5.56057L5.55825 8.15074L5.85824 8.15307ZM6.38188 9.30133L6.18679 9.52954L6.19613 9.53691L6.38188 9.30133ZM8.55871 9.30133L8.74463 9.53713L8.75436 9.52876L8.55871 9.30133ZM8.94658 7.55089L9.21998 7.4274L9.21957 7.4265L8.94658 7.55089ZM8.55871 7.03847L8.75266 6.80936L8.74445 6.80289L8.55871 7.03847ZM6.38188 7.03847L6.19596 6.80267L6.18613 6.81114L6.38188 7.03847ZM5.86198 8.17925L5.56199 8.18066L5.56339 8.47925H5.86198V8.17925ZM6.23601 8.17925L6.53585 8.18889L6.53613 8.18042L6.53592 8.17194L6.23601 8.17925ZM6.61003 7.31525L6.42746 7.07721L6.41852 7.08406L6.41012 7.09157L6.61003 7.31525ZM8.30811 7.31525L8.50802 7.09157L8.49962 7.08406L8.49069 7.07721L8.30811 7.31525ZM8.68214 8.17925L8.38223 8.17194L8.38202 8.18042L8.38229 8.18889L8.68214 8.17925ZM8.30811 9.03951L8.49267 9.27603L8.49927 9.27088L8.50557 9.26537L8.30811 9.03951ZM7.45907 9.33157V9.63157V9.33157ZM6.61003 9.03951L6.41258 9.26537L6.41888 9.27088L6.42548 9.27603L6.61003 9.03951ZM14.3823 8.15307V8.45313L14.3882 8.45301L14.3823 8.15307ZM14.1953 8.15307L13.8953 8.15448L13.8953 8.15548L14.1953 8.15307ZM14.7152 9.27515L14.5192 9.50267L14.5295 9.51079L14.7152 9.27515ZM15.8055 9.65307V9.95307V9.65307ZM16.8958 9.27515L17.0816 9.51102L17.0915 9.50247L16.8958 9.27515ZM17.4156 8.15307L17.7156 8.15545L17.7156 8.15448L17.4156 8.15307ZM16.8958 7.01229L17.0917 6.78474L17.0814 6.77665L16.8958 7.01229ZM15.8055 6.63437V6.33437V6.63437ZM14.7152 7.01229L14.5293 6.77643L14.5194 6.78495L14.7152 7.01229ZM14.5693 8.15307V8.45307H14.8797L14.8691 8.14288L14.5693 8.15307ZM14.9433 7.28907L14.7598 7.05178L14.7525 7.05741L14.7456 7.06347L14.9433 7.28907ZM15.7924 6.99901V6.69901V6.99901ZM16.6414 7.28907L16.8413 7.06541L16.8334 7.0583L16.825 7.05178L16.6414 7.28907ZM17.0154 8.14933L16.7155 8.143L16.7153 8.1507L16.7156 8.15839L17.0154 8.14933ZM16.6414 9.00959L16.8261 9.24603L16.8328 9.24074L16.8393 9.23507L16.6414 9.00959ZM14.9471 9.00959L14.7493 9.23513L14.7557 9.24077L14.7624 9.24603L14.9471 9.00959ZM14.573 8.14933L14.8729 8.15849L14.8825 7.84321L14.5672 7.84939L14.573 8.14933ZM1.63175 2.13873V2.43873H5.46926V2.13873V1.83873H1.63175V2.13873ZM5.46926 2.13873V2.43873C5.59842 2.43873 5.72229 2.38742 5.81363 2.29609L5.60149 2.08396L5.38936 1.87183C5.41055 1.85064 5.43929 1.83873 5.46926 1.83873V2.13873ZM5.60149 2.08396L5.81363 2.29609C5.90496 2.20476 5.95627 2.08089 5.95627 1.95172H5.65627H5.35627C5.35627 1.92175 5.36817 1.89302 5.38936 1.87183L5.60149 2.08396ZM5.65627 1.95172H5.95627C5.95627 1.82256 5.90496 1.69868 5.81363 1.60735L5.60149 1.81948L5.38936 2.03161C5.36817 2.01043 5.35627 1.98169 5.35627 1.95172H5.65627ZM5.60149 1.81948L5.81363 1.60735C5.72229 1.51602 5.59842 1.46471 5.46926 1.46471V1.76471V2.06471C5.43929 2.06471 5.41055 2.0528 5.38936 2.03161L5.60149 1.81948ZM5.46926 1.76471V1.46471H1.63175V1.76471V2.06471H5.46926V1.76471ZM1.63175 1.76471V1.46471C1.50259 1.46471 1.37871 1.51602 1.28738 1.60735L1.49951 1.81948L1.71164 2.03161C1.69045 2.0528 1.66172 2.06471 1.63175 2.06471V1.76471ZM1.49951 1.81948L1.28738 1.60735C1.19605 1.69868 1.14474 1.82256 1.14474 1.95172H1.44474H1.74474C1.74474 1.98169 1.73283 2.01043 1.71164 2.03161L1.49951 1.81948ZM1.44474 1.95172H1.14474C1.14474 2.08088 1.19605 2.20476 1.28738 2.29609L1.49951 2.08396L1.71164 1.87183C1.73283 1.89302 1.74474 1.92175 1.74474 1.95172H1.44474ZM1.49951 2.08396L1.28738 2.29609C1.37871 2.38742 1.50259 2.43873 1.63175 2.43873V2.13873V1.83873C1.66172 1.83873 1.69045 1.85064 1.71164 1.87183L1.49951 2.08396ZM3.73752 1.95172H4.03752V0.93811H3.73752H3.43752V1.95172H3.73752ZM3.73752 0.93811L4.02552 1.02211L4.0517 0.932344L3.7637 0.848344L3.4757 0.764344L3.44952 0.854111L3.73752 0.93811ZM3.7637 0.848344L4.00782 1.02272L4.06392 0.94417L3.8198 0.769799L3.57568 0.595427L3.51958 0.673973L3.7637 0.848344ZM3.8198 0.769799L3.98086 1.0229L4.06315 0.970533L3.90209 0.717435L3.74102 0.464336L3.65874 0.5167L3.8198 0.769799ZM3.90209 0.717435L4.00648 0.998684L4.0074 0.998501L3.99559 0.698734L3.98379 0.398966C3.92018 0.401471 3.85737 0.414033 3.79769 0.436186L3.90209 0.717435ZM3.99559 0.698734V0.998734H12.946V0.698734V0.398734H3.99559V0.698734ZM12.946 0.698734L12.9505 0.9987C12.9406 0.998848 12.931 0.995132 12.9238 0.988337L13.1293 0.769799L13.3348 0.551261C13.2285 0.45128 13.0875 0.396591 12.9416 0.398767L12.946 0.698734ZM13.1293 0.769799L12.9231 0.987731C12.9173 0.982227 12.9127 0.975627 12.9094 0.968313L13.1835 0.846472L13.4577 0.72463C13.4288 0.65954 13.3872 0.600821 13.3355 0.551866L13.1293 0.769799ZM13.1835 0.846472L12.9094 0.968313C12.9062 0.961002 12.9044 0.953115 12.9042 0.945105L13.2041 0.93811L13.504 0.931115C13.5024 0.859897 13.4866 0.789718 13.4577 0.72463L13.1835 0.846472ZM13.2041 0.93811H12.9041V7.72668H13.2041H13.5041V0.93811H13.2041ZM13.2041 7.72668L12.9042 7.71969C12.9044 7.71168 12.9062 7.70379 12.9094 7.69648L13.1835 7.81832L13.4577 7.94016C13.4866 7.87507 13.5024 7.8049 13.504 7.73368L13.2041 7.72668ZM13.1835 7.81832L12.9094 7.69648C12.9127 7.68917 12.9173 7.68257 12.9231 7.67706L13.1293 7.89499L13.3355 8.11293C13.3872 8.06397 13.4288 8.00525 13.4577 7.94016L13.1835 7.81832ZM13.1293 7.89499L12.9238 7.67646C12.931 7.66966 12.9406 7.66594 12.9505 7.66609L12.946 7.96606L12.9416 8.26603C13.0875 8.2682 13.2285 8.21351 13.3348 8.11353L13.1293 7.89499ZM12.946 8.34009L12.9381 8.63998C13.1763 8.64631 13.4081 8.56185 13.5864 8.40371L13.3874 8.17925L13.1883 7.9548C13.1239 8.01195 13.0401 8.04248 12.954 8.04019L12.946 8.34009ZM13.3874 8.17925L13.5918 8.39887C13.682 8.31487 13.754 8.2132 13.8033 8.10017L13.5283 7.98029L13.2533 7.86042C13.2369 7.89796 13.213 7.93174 13.183 7.95964L13.3874 8.17925ZM13.5283 7.98029L13.8033 8.10017C13.8526 7.98714 13.878 7.86519 13.8781 7.74188L13.5781 7.74164L13.2781 7.7414C13.2781 7.78236 13.2696 7.82287 13.2533 7.86042L13.5283 7.98029ZM13.5781 7.74164H13.8781V0.93811H13.5781H13.2781V7.74164H13.5781ZM13.5781 0.93811L13.8781 0.938197C13.8782 0.814774 13.8527 0.692672 13.8034 0.579531L13.5284 0.699407L13.2534 0.819283C13.2697 0.85674 13.2782 0.897163 13.2781 0.938024L13.5781 0.93811ZM13.5284 0.699407L13.8034 0.579531C13.7541 0.466389 13.682 0.364644 13.5915 0.280662L13.3874 0.5005L13.1832 0.720338C13.2132 0.748143 13.2371 0.781827 13.2534 0.819283L13.5284 0.699407ZM13.3874 0.5005L13.594 0.282956C13.419 0.116823 13.1869 0.0243552 12.9456 0.024708L12.946 0.324708L12.9465 0.624707C13.0337 0.62458 13.1176 0.658 13.1808 0.718043L13.3874 0.5005ZM12.946 0.324708V0.0247077H3.99559V0.324708V0.624708H12.946V0.324708ZM3.99559 0.324708L3.99204 0.0247287C3.87671 0.0260935 3.76257 0.0481857 3.65506 0.0899508L3.7637 0.369591L3.87233 0.649231C3.91279 0.633514 3.95574 0.6252 3.99914 0.624687L3.99559 0.324708ZM3.7637 0.369591L3.65378 0.0904528C3.54105 0.134845 3.43836 0.201399 3.35181 0.286177L3.56172 0.5005L3.77164 0.714823C3.80087 0.686194 3.83555 0.66372 3.87362 0.648729L3.7637 0.369591ZM3.56172 0.5005L3.36325 0.275538C3.27024 0.357599 3.19476 0.457605 3.14135 0.569555L3.41211 0.698734L3.68288 0.827913C3.70149 0.788904 3.72779 0.754056 3.7602 0.725462L3.56172 0.5005ZM3.41211 0.698734L3.13455 0.584904C3.08901 0.69595 3.0649 0.814613 3.06351 0.934626L3.36349 0.93811L3.66347 0.941595C3.66398 0.897316 3.67288 0.853534 3.68968 0.812563L3.41211 0.698734ZM3.36349 0.93811H3.06349V1.95172H3.36349H3.66349V0.93811H3.36349ZM3.36349 1.95172H3.06349C3.06349 2.08088 3.1148 2.20476 3.20613 2.29609L3.41826 2.08396L3.6304 1.87183C3.65159 1.89302 3.66349 1.92176 3.66349 1.95172H3.36349ZM3.41826 2.08396L3.20613 2.29609C3.29746 2.38742 3.42134 2.43873 3.5505 2.43873V2.13873V1.83873C3.58047 1.83873 3.60921 1.85064 3.6304 1.87183L3.41826 2.08396ZM3.5505 2.13873V2.43873C3.67967 2.43873 3.80354 2.38742 3.89487 2.29609L3.68274 2.08396L3.47061 1.87183C3.4918 1.85064 3.52054 1.83873 3.5505 1.83873V2.13873ZM3.68274 2.08396L3.89487 2.29609C3.9862 2.20476 4.03752 2.08089 4.03752 1.95172H3.73752H3.43752C3.43752 1.92175 3.44942 1.89302 3.47061 1.87183L3.68274 2.08396ZM12.946 7.96606V7.66606H8.92526V7.96606V8.26606H12.946V7.96606ZM8.92526 7.96606V7.66606C8.79609 7.66606 8.67222 7.71737 8.58089 7.8087L8.79302 8.02083L9.00515 8.23297C8.98396 8.25415 8.95522 8.26606 8.92526 8.26606V7.96606ZM8.79302 8.02083L8.58089 7.8087C8.48955 7.90003 8.43824 8.02391 8.43824 8.15307H8.73824H9.03824C9.03824 8.18304 9.02634 8.21178 9.00515 8.23297L8.79302 8.02083ZM8.73824 8.15307H8.43824C8.43824 8.28224 8.48955 8.40611 8.58089 8.49744L8.79302 8.28531L9.00515 8.07318C9.02634 8.09437 9.03824 8.1231 9.03824 8.15307H8.73824ZM8.79302 8.28531L8.58089 8.49744C8.67222 8.58877 8.79609 8.64009 8.92526 8.64009V8.34009V8.04008C8.95522 8.04008 8.98396 8.05199 9.00515 8.07318L8.79302 8.28531ZM8.92526 8.34009V8.64009H12.946V8.34009V8.04008H8.92526V8.34009ZM12.946 8.34009V8.64009C13.0752 8.64009 13.1991 8.58878 13.2904 8.49744L13.0783 8.28531L12.8661 8.07318C12.8873 8.05199 12.9161 8.04008 12.946 8.04008V8.34009ZM13.0783 8.28531L13.2904 8.49744C13.3817 8.40611 13.433 8.28224 13.433 8.15307H13.133H12.833C12.833 8.12311 12.845 8.09437 12.8661 8.07318L13.0783 8.28531ZM13.133 8.15307H13.433C13.433 8.02391 13.3817 7.90003 13.2904 7.8087L13.0783 8.02083L12.8661 8.23297C12.845 8.21178 12.833 8.18304 12.833 8.15307H13.133ZM13.0783 8.02083L13.2904 7.8087C13.1991 7.71737 13.0752 7.66606 12.946 7.66606V7.96606V8.26606C12.9161 8.26606 12.8873 8.25416 12.8661 8.23297L13.0783 8.02083ZM12.946 8.34009V8.64009H14.3636V8.34009V8.04008H12.946V8.34009ZM14.3636 8.34009V8.64009C14.4928 8.64009 14.6166 8.58878 14.708 8.49744L14.4958 8.28531L14.2837 8.07318C14.3049 8.05199 14.3336 8.04008 14.3636 8.04008V8.34009ZM14.4958 8.28531L14.708 8.49744C14.7993 8.40611 14.8506 8.28224 14.8506 8.15307H14.5506H14.2506C14.2506 8.12311 14.2625 8.09437 14.2837 8.07318L14.4958 8.28531ZM14.5506 8.15307H14.8506C14.8506 8.02391 14.7993 7.90003 14.708 7.8087L14.4958 8.02083L14.2837 8.23297C14.2625 8.21178 14.2506 8.18304 14.2506 8.15307H14.5506ZM14.4958 8.02083L14.708 7.8087C14.6166 7.71737 14.4928 7.66606 14.3636 7.66606V7.96606V8.26606C14.3336 8.26606 14.3049 8.25416 14.2837 8.23297L14.4958 8.02083ZM14.3636 7.96606V7.66606H12.946V7.96606V8.26606H14.3636V7.96606ZM5.91061 7.96606V7.66606H5.32713V7.96606V8.26606H5.91061V7.96606ZM5.32713 7.96606V7.66606C5.06616 7.66606 4.84125 7.6747 4.65298 7.6832C4.46051 7.69188 4.31773 7.69972 4.20505 7.69972V7.99972V8.29972C4.33548 8.29972 4.4994 8.29073 4.68002 8.28259C4.86485 8.27425 5.07942 8.26606 5.32713 8.26606V7.96606ZM4.20505 7.99972L4.19261 7.69998C4.1262 7.70274 4.05975 7.69574 3.99537 7.67922L3.92079 7.9698L3.84621 8.26038C3.96739 8.29148 4.09248 8.30465 4.21749 8.29946L4.20505 7.99972ZM3.92079 7.9698L3.98532 7.67682C4.01583 7.68354 4.0434 7.69983 4.06401 7.72332L3.8385 7.92118L3.613 8.11903C3.6767 8.19164 3.76193 8.242 3.85626 8.26278L3.92079 7.9698ZM3.8385 7.92118L4.07983 7.74295C4.06763 7.72644 4.0606 7.70668 4.05961 7.68617L3.75996 7.7005L3.4603 7.71483C3.46694 7.85373 3.51457 7.98754 3.59718 8.0994L3.8385 7.92118ZM3.75996 7.7005L4.05746 7.66188C4.03466 7.48625 4.02546 7.30913 4.02994 7.13208L3.73003 7.1245L3.43013 7.11692C3.42487 7.32484 3.43568 7.53286 3.46245 7.73912L3.75996 7.7005ZM3.73003 7.1245H4.03004V6.18944H3.73003H3.43003V7.1245H3.73003ZM3.73003 6.18944L4.02999 6.18416C4.0278 6.05946 3.97856 5.94019 3.89215 5.85026L3.67582 6.0581L3.45949 6.26595C3.44105 6.24676 3.43055 6.22131 3.43008 6.19471L3.73003 6.18944ZM3.67582 6.0581L3.89215 5.85026C3.80574 5.76032 3.68854 5.70636 3.56402 5.69918L3.54676 5.99868L3.5295 6.29819C3.50293 6.29665 3.47793 6.28514 3.45949 6.26595L3.67582 6.0581ZM3.54676 5.99868L3.55276 5.69874C3.48799 5.69745 3.42361 5.70909 3.3634 5.73298L3.47405 6.01183L3.58469 6.29068C3.57073 6.29622 3.55579 6.29892 3.54076 6.29862L3.54676 5.99868ZM3.47405 6.01183L3.3634 5.73298C3.30318 5.75687 3.24834 5.79254 3.20208 5.83789L3.4121 6.05212L3.62212 6.26634C3.61139 6.27686 3.59866 6.28514 3.58469 6.29068L3.47405 6.01183ZM3.4121 6.05212L3.20208 5.83789C3.15582 5.88325 3.11907 5.93738 3.09399 5.99711L3.37059 6.11325L3.6472 6.2294C3.64138 6.24326 3.63285 6.25582 3.62212 6.26634L3.4121 6.05212ZM3.37059 6.11325L3.09399 5.99711C3.06891 6.05684 3.056 6.12097 3.05601 6.18576L3.35601 6.1857L3.65601 6.18564C3.65601 6.20067 3.65302 6.21554 3.6472 6.2294L3.37059 6.11325ZM3.35601 6.1857H3.05601V7.1245H3.35601H3.65601V6.1857H3.35601ZM3.35601 7.1245L3.05601 7.1257C3.0568 7.32426 3.06869 7.52283 3.09169 7.72024L3.38967 7.68554L3.68766 7.65083C3.66726 7.47572 3.65671 7.29952 3.65601 7.1233L3.35601 7.1245ZM3.38967 7.68554L3.09144 7.71809C3.1058 7.84959 3.13684 7.979 3.18423 8.10304L3.46448 7.99598L3.74472 7.88892C3.71581 7.81323 3.69674 7.73393 3.6879 7.65299L3.38967 7.68554ZM3.46448 7.99598L3.18651 8.10882C3.2298 8.21547 3.29467 8.31201 3.37706 8.39238L3.58655 8.17765L3.79605 7.96291C3.77288 7.9403 3.75462 7.91314 3.74245 7.88314L3.46448 7.99598ZM3.58655 8.17765L3.37706 8.39238C3.45944 8.47276 3.55756 8.53523 3.66524 8.57587L3.77118 8.2952L3.87712 8.01453C3.84683 8.0031 3.81923 7.98552 3.79605 7.96291L3.58655 8.17765ZM3.77118 8.2952L3.67608 8.57973C3.85215 8.63857 4.03777 8.66555 4.22377 8.65858L4.21253 8.35879L4.20129 8.059C4.08807 8.06324 3.97447 8.04683 3.86627 8.01067L3.77118 8.2952ZM4.21253 8.35879V8.65879C4.3597 8.65879 4.52718 8.64985 4.70728 8.64164C4.89055 8.63329 5.0965 8.62512 5.33461 8.62512V8.32512V8.02512C5.08274 8.02512 4.86604 8.03379 4.67996 8.04227C4.49071 8.05089 4.34213 8.05879 4.21253 8.05879V8.35879ZM5.33461 8.32512V8.62512H5.89939V8.32512V8.02512H5.33461V8.32512ZM5.89939 8.32512L5.8844 8.62475C5.94831 8.62794 6.01222 8.61852 6.07248 8.59702L5.97166 8.31447L5.87084 8.03192C5.88479 8.02694 5.89958 8.02476 5.91437 8.0255L5.89939 8.32512ZM5.97166 8.31447L6.07248 8.59702C6.13275 8.57551 6.18819 8.54235 6.23564 8.49942L6.03436 8.27696L5.83309 8.0545C5.84406 8.04457 5.85689 8.03689 5.87084 8.03192L5.97166 8.31447ZM6.03436 8.27696L6.23564 8.49942C6.28308 8.45649 6.32161 8.40464 6.34902 8.34682L6.07794 8.21832L5.80685 8.08981C5.81319 8.07643 5.82211 8.06443 5.83309 8.0545L6.03436 8.27696ZM6.07794 8.21832L6.34902 8.34682C6.37643 8.289 6.39218 8.22635 6.39538 8.16244L6.09575 8.14746L5.79612 8.13248C5.79686 8.11769 5.80051 8.10319 5.80685 8.08981L6.07794 8.21832ZM6.09575 8.14746L6.39538 8.16244C6.39857 8.09853 6.38915 8.03463 6.36764 7.97436L6.08509 8.07518L5.80254 8.176C5.79757 8.16206 5.79538 8.14727 5.79612 8.13248L6.09575 8.14746ZM6.08509 8.07518L6.36764 7.97436C6.34614 7.9141 6.31298 7.85866 6.27005 7.81121L6.04759 8.01249L5.82513 8.21376C5.81519 8.20278 5.80752 8.18995 5.80254 8.176L6.08509 8.07518ZM6.04759 8.01249L6.27005 7.81121C6.22712 7.76376 6.17526 7.72523 6.11744 7.69783L5.98894 7.96891L5.86044 8.24C5.84706 8.23365 5.83506 8.22474 5.82513 8.21376L6.04759 8.01249ZM5.98894 7.96891L6.11744 7.69783C6.05963 7.67042 5.99698 7.65467 5.93307 7.65147L5.91809 7.9511L5.90311 8.25072C5.88831 8.24998 5.87382 8.24634 5.86044 8.24L5.98894 7.96891ZM5.91809 7.9511L5.64976 7.81693L5.64228 7.83189L5.91061 7.96606L6.17893 8.10022L6.18642 8.08526L5.91809 7.9511ZM4.56785 5.98372V5.68372H0.932321V5.98372V6.28372H4.56785V5.98372ZM0.932321 5.98372V5.68372C0.803157 5.68372 0.679283 5.73503 0.58795 5.82636L0.800082 6.0385L1.01221 6.25063C0.991025 6.27182 0.962286 6.28372 0.932321 6.28372V5.98372ZM0.800082 6.0385L0.58795 5.82636C0.496618 5.9177 0.445308 6.04157 0.445308 6.17073H0.745308H1.04531C1.04531 6.2007 1.0334 6.22944 1.01221 6.25063L0.800082 6.0385ZM0.745308 6.17073H0.445308C0.445308 6.2999 0.496618 6.42377 0.58795 6.5151L0.800082 6.30297L1.01221 6.09084C1.0334 6.11203 1.04531 6.14077 1.04531 6.17073H0.745308ZM0.800082 6.30297L0.58795 6.5151C0.679283 6.60644 0.803157 6.65775 0.932321 6.65775V6.35775V6.05775C0.962286 6.05775 0.991025 6.06965 1.01221 6.09084L0.800082 6.30297ZM0.932321 6.35775V6.65775H4.56785V6.35775V6.05775H0.932321V6.35775ZM4.56785 6.35775V6.65775C4.69702 6.65775 4.82089 6.60644 4.91222 6.5151L4.70009 6.30297L4.48796 6.09084C4.50915 6.06965 4.53789 6.05775 4.56785 6.05775V6.35775ZM4.70009 6.30297L4.91222 6.5151C5.00356 6.42377 5.05487 6.2999 5.05487 6.17073H4.75487H4.45487C4.45487 6.14077 4.46677 6.11203 4.48796 6.09084L4.70009 6.30297ZM4.75487 6.17073H5.05487C5.05487 6.04157 5.00356 5.9177 4.91222 5.82636L4.70009 6.0385L4.48796 6.25063C4.46677 6.22944 4.45487 6.2007 4.45487 6.17073H4.75487ZM4.70009 6.0385L4.91222 5.82636C4.82089 5.73503 4.69702 5.68372 4.56785 5.68372V5.98372V6.28372C4.53789 6.28372 4.50915 6.27182 4.48796 6.25063L4.70009 6.0385ZM7.46655 4.61105V4.31105H2.47705V4.61105V4.91105H7.46655V4.61105ZM2.47705 4.61105L2.47122 4.3111C2.34439 4.31357 2.22344 4.36505 2.13374 4.45475L2.34587 4.66688L2.558 4.87901C2.53803 4.89898 2.51111 4.91044 2.48287 4.91099L2.47705 4.61105ZM2.34587 4.66688L2.13374 4.45475C2.04404 4.54445 1.99255 4.6654 1.99009 4.79223L2.29003 4.79806L2.58998 4.80388C2.58943 4.83212 2.57797 4.85904 2.558 4.87901L2.34587 4.66688ZM2.29003 4.79806H1.99003C1.99003 4.92722 2.04134 5.0511 2.13268 5.14243L2.34481 4.9303L2.55694 4.71816C2.57813 4.73935 2.59003 4.76809 2.59003 4.79806H2.29003ZM2.34481 4.9303L2.13268 5.14243C2.22401 5.23376 2.34788 5.28507 2.47705 5.28507V4.98507V4.68507C2.50701 4.68507 2.53575 4.69698 2.55694 4.71816L2.34481 4.9303ZM2.47705 4.98507V5.28507H7.46655V4.98507V4.68507H2.47705V4.98507ZM7.46655 4.98507V5.28507C7.59572 5.28507 7.71959 5.23376 7.81092 5.14243L7.59879 4.9303L7.38666 4.71816C7.40785 4.69698 7.43659 4.68507 7.46655 4.68507V4.98507ZM7.59879 4.9303L7.81092 5.14243C7.90226 5.0511 7.95357 4.92722 7.95357 4.79806H7.65357H7.35357C7.35357 4.76809 7.36547 4.73935 7.38666 4.71816L7.59879 4.9303ZM7.65357 4.79806H7.95357C7.95357 4.6689 7.90226 4.54502 7.81092 4.45369L7.59879 4.66582L7.38666 4.87795C7.36547 4.85676 7.35357 4.82802 7.35357 4.79806H7.65357ZM7.59879 4.66582L7.81092 4.45369C7.71959 4.36236 7.59572 4.31105 7.46655 4.31105V4.61105V4.91105C7.43659 4.91105 7.40785 4.89914 7.38666 4.87795L7.59879 4.66582ZM2.08432 3.17105V2.87105H0.21045V3.17105V3.47105H2.08432V3.17105ZM0.21045 3.17105L0.210451 2.87105C0.146495 2.87105 0.0831659 2.88364 0.0240787 2.90812L0.138884 3.18528L0.253689 3.46245C0.23998 3.46812 0.225288 3.47105 0.21045 3.47105L0.21045 3.17105ZM0.138884 3.18528L0.0240787 2.90812C-0.0350088 2.93259 -0.0886966 2.96847 -0.13392 3.01369L0.0782123 3.22582L0.290344 3.43795C0.279853 3.44844 0.267397 3.45677 0.253689 3.46245L0.138884 3.18528ZM0.0782123 3.22582L-0.13392 3.01369C-0.179143 3.05891 -0.215016 3.1126 -0.239491 3.17169L0.037673 3.28649L0.314837 3.4013C0.309159 3.41501 0.300836 3.42746 0.290344 3.43795L0.0782123 3.22582ZM0.037673 3.28649L-0.239491 3.17169C-0.263965 3.23077 -0.276563 3.2941 -0.276563 3.35806H0.0234375H0.323438C0.323438 3.3729 0.320515 3.38759 0.314837 3.4013L0.037673 3.28649ZM0.0234375 3.35806H-0.276563C-0.276563 3.42201 -0.263966 3.48534 -0.239491 3.54443L0.037673 3.42963L0.314837 3.31482C0.320515 3.32853 0.323438 3.34322 0.323438 3.35806H0.0234375ZM0.037673 3.42963L-0.239491 3.54443C-0.215016 3.60352 -0.179143 3.65721 -0.13392 3.70243L0.0782123 3.4903L0.290344 3.27816C0.300836 3.28866 0.309159 3.30111 0.314837 3.31482L0.037673 3.42963ZM0.0782123 3.4903L-0.13392 3.70243C-0.0886957 3.74765 -0.0350077 3.78353 0.0240787 3.808L0.138884 3.53084L0.253689 3.25367C0.267396 3.25935 0.279852 3.26767 0.290344 3.27816L0.0782123 3.4903ZM0.138884 3.53084L0.0240787 3.808C0.0831659 3.83247 0.146495 3.84507 0.210451 3.84507L0.21045 3.54507L0.21045 3.24507C0.225288 3.24507 0.23998 3.24799 0.253689 3.25367L0.138884 3.53084ZM0.21045 3.54507V3.84507H2.08058V3.54507V3.24507H0.21045V3.54507ZM2.08058 3.54507V3.84507C2.20974 3.84507 2.33362 3.79376 2.42495 3.70243L2.21282 3.4903L2.00069 3.27816C2.02188 3.25698 2.05061 3.24507 2.08058 3.24507V3.54507ZM2.21282 3.4903L2.42495 3.70243C2.51628 3.6111 2.56759 3.48722 2.56759 3.35806H2.26759H1.96759C1.96759 3.32809 1.9795 3.29935 2.00069 3.27816L2.21282 3.4903ZM2.26759 3.35806H2.56759C2.56759 3.22889 2.51628 3.10502 2.42495 3.01369L2.21282 3.22582L2.00069 3.43795C1.9795 3.41676 1.96759 3.38803 1.96759 3.35806H2.26759ZM2.21282 3.22582L2.42495 3.01369C2.33362 2.92236 2.20974 2.87105 2.08058 2.87105V3.17105V3.47105C2.05061 3.47105 2.02188 3.45914 2.00069 3.43795L2.21282 3.22582ZM2.08058 3.17105V3.47105H2.08432V3.17105V2.87105H2.08058V3.17105ZM3.36349 2.91297H3.06349V4.7831H3.36349H3.66349V2.91297H3.36349ZM3.36349 4.7831H3.06349C3.06349 4.91226 3.1148 5.03613 3.20613 5.12747L3.41826 4.91534L3.6304 4.7032C3.65159 4.72439 3.66349 4.75313 3.66349 4.7831H3.36349ZM3.41826 4.91534L3.20613 5.12747C3.29747 5.2188 3.42134 5.27011 3.5505 5.27011V4.97011V4.67011C3.58047 4.67011 3.60921 4.68201 3.6304 4.7032L3.41826 4.91534ZM3.5505 4.97011V5.27011C3.67967 5.27011 3.80354 5.2188 3.89487 5.12747L3.68274 4.91534L3.47061 4.7032C3.4918 4.68201 3.52054 4.67011 3.5505 4.67011V4.97011ZM3.68274 4.91534L3.89487 5.12747C3.9862 5.03614 4.03752 4.91226 4.03752 4.7831H3.73752H3.43752C3.43752 4.75313 3.44942 4.72439 3.47061 4.7032L3.68274 4.91534ZM3.73752 4.7831H4.03752V2.91297H3.73752H3.43752V4.7831H3.73752ZM3.73752 2.91297H4.03752C4.03752 2.7838 3.9862 2.65993 3.89487 2.5686L3.68274 2.78073L3.47061 2.99286C3.44942 2.97167 3.43752 2.94293 3.43752 2.91297H3.73752ZM3.68274 2.78073L3.89487 2.5686C3.80354 2.47727 3.67967 2.42595 3.5505 2.42595V2.72595V3.02595C3.52054 3.02595 3.4918 3.01405 3.47061 2.99286L3.68274 2.78073ZM3.5505 2.72595V2.42595C3.42134 2.42595 3.29746 2.47726 3.20613 2.5686L3.41826 2.78073L3.6304 2.99286C3.60921 3.01405 3.58047 3.02595 3.5505 3.02595V2.72595ZM3.41826 2.78073L3.20613 2.5686C3.1148 2.65993 3.06349 2.7838 3.06349 2.91297H3.36349H3.66349C3.66349 2.94293 3.65159 2.97167 3.6304 2.99286L3.41826 2.78073ZM13.3911 3.09998V3.39998H15.5343V3.09998V2.79998H13.3911V3.09998ZM15.5343 3.09998L15.5375 3.39996C15.5866 3.39943 15.635 3.41224 15.6786 3.43766L15.8298 3.17853L15.9809 2.91939C15.845 2.84009 15.69 2.79828 15.5311 2.8L15.5343 3.09998ZM15.8298 3.17853L15.6903 3.44415C15.7317 3.46589 15.7656 3.49822 15.7883 3.53664L16.0467 3.38424L16.3051 3.23185C16.2245 3.09522 16.1073 2.98541 15.9692 2.91291L15.8298 3.17853ZM16.0467 3.38424L16.2019 3.64096L16.3628 3.54371L16.2075 3.28699L16.0523 3.03027L15.8915 3.12752L16.0467 3.38424ZM16.2075 3.28699L16.083 3.01409L15.9109 3.09263L16.0355 3.36554L16.1601 3.63845L16.3321 3.5599L16.2075 3.28699ZM16.0355 3.36554L15.7626 3.49027C15.8321 3.64211 15.9695 3.86221 16.1196 4.10874L16.3759 3.95276L16.6321 3.79678C16.468 3.52715 16.3586 3.35078 16.3083 3.24081L16.0355 3.36554ZM16.3759 3.95276L16.122 4.11267C16.3575 4.4865 16.6682 4.98595 16.9149 5.42399L17.1763 5.27681L17.4377 5.12963C17.1831 4.67749 16.8654 4.16707 16.6297 3.79285L16.3759 3.95276ZM17.1763 5.27681L16.9163 5.4266C17.039 5.63937 17.1431 5.84417 17.2175 6.00732L17.4904 5.88273L17.7634 5.75815C17.6807 5.5772 17.5679 5.3556 17.4362 5.12702L17.1763 5.27681ZM17.4904 5.88273L17.2214 6.01553C17.2647 6.10322 17.293 6.19723 17.3049 6.29355L17.6027 6.25676L17.9004 6.21997C17.8801 6.05597 17.8321 5.89714 17.7595 5.74994L17.4904 5.88273ZM17.6027 6.25676H17.3027V7.80523H17.6027H17.9027V6.25676H17.6027ZM17.6027 7.80523L17.3028 7.81553C17.3017 7.78392 17.3088 7.75256 17.3234 7.72449L17.5897 7.86258L17.856 8.00068C17.8889 7.93723 17.9049 7.86636 17.9025 7.79492L17.6027 7.80523ZM17.5897 7.86258L17.3234 7.72449C17.3379 7.69642 17.3595 7.67256 17.386 7.65523L17.5503 7.90621L17.7146 8.1572C17.7744 8.11804 17.8231 8.06413 17.856 8.00068L17.5897 7.86258ZM17.5503 7.90621L17.3895 7.65298C17.387 7.65454 17.3841 7.65531 17.3812 7.65517L17.367 7.95484L17.3529 8.2545C17.4792 8.26047 17.6044 8.22728 17.7111 8.15945L17.5503 7.90621ZM17.367 7.95484V7.65484H17.3109V7.95484V8.25484H17.367V7.95484ZM17.3109 7.95484L17.3478 7.65711C17.221 7.64142 17.0932 7.67614 16.9918 7.75379L17.1742 7.99196L17.3566 8.23014C17.3331 8.24815 17.3035 8.25621 17.2741 8.25257L17.3109 7.95484ZM17.1742 7.99196L16.9918 7.75379C16.8904 7.83144 16.8236 7.9458 16.8057 8.07224L17.1028 8.11425L17.3998 8.15626C17.3957 8.18559 17.3802 8.21212 17.3566 8.23014L17.1742 7.99196ZM17.1028 8.11425L16.8057 8.07224C16.7878 8.19869 16.8203 8.3271 16.8962 8.42981L17.1375 8.25156L17.3788 8.0733C17.3964 8.09713 17.404 8.12692 17.3998 8.15626L17.1028 8.11425ZM17.1375 8.25156L16.8962 8.42981C16.9721 8.53253 17.0853 8.60133 17.2114 8.6214L17.2586 8.32512L17.3057 8.02885C17.335 8.03351 17.3612 8.04947 17.3788 8.0733L17.1375 8.25156ZM17.2586 8.32512L17.2275 8.62351C17.284 8.6294 17.3415 8.6294 17.3981 8.62351L17.367 8.32512L17.3359 8.02674C17.3207 8.02833 17.3049 8.02833 17.2896 8.02674L17.2586 8.32512ZM17.367 8.32512L17.3615 8.62507C17.5636 8.6288 17.7629 8.57187 17.9329 8.45928L17.7672 8.20918L17.6015 7.95908C17.5344 8.00357 17.4547 8.02669 17.3725 8.02517L17.367 8.32512ZM17.7672 8.20918L17.94 8.45446C18.0441 8.38116 18.129 8.28389 18.1876 8.17087L17.9213 8.03277L17.6549 7.89468C17.6406 7.92226 17.6199 7.946 17.5945 7.96389L17.7672 8.20918ZM17.9213 8.03277L18.1876 8.17087C18.2462 8.05784 18.2768 7.93237 18.2767 7.80506L17.9767 7.80523L17.6767 7.8054C17.6767 7.83647 17.6692 7.86709 17.6549 7.89468L17.9213 8.03277ZM17.9767 7.80523H18.2767V6.30912H17.9767H17.6767V7.80523H17.9767ZM17.9767 6.30912V6.00912H17.7897V6.30912V6.60912H17.9767V6.30912ZM17.7897 6.30912L17.7355 6.60419L17.9187 6.63785L17.9729 6.34279L18.0271 6.04772L17.8439 6.01406L17.7897 6.30912ZM17.9729 6.34279H18.2729V6.26424H17.9729H17.6729V6.34279H17.9729ZM17.9729 6.26424L18.2726 6.24994C18.2656 6.10403 18.2346 5.96027 18.1807 5.82449L17.9019 5.9351L17.623 6.04571C17.6525 6.12002 17.6695 6.19869 17.6733 6.27854L17.9729 6.26424ZM17.9019 5.9351L18.178 5.81773C17.9449 5.26957 17.6637 4.74319 17.3375 4.24479L17.0865 4.40907L16.8355 4.57335C17.1422 5.04202 17.4067 5.537 17.6258 6.05246L17.9019 5.9351ZM17.0865 4.40907L17.3415 4.25104C17.1743 3.98121 17.0188 3.73527 16.896 3.51496L16.6339 3.66102L16.3719 3.80708C16.5034 4.04308 16.6696 4.30581 16.8315 4.5671L17.0865 4.40907ZM16.6339 3.66102L16.896 3.51496C16.8293 3.39538 16.7695 3.29734 16.7245 3.2231C16.6741 3.13999 16.6543 3.10542 16.6479 3.09027L16.3721 3.20845L16.0964 3.32662C16.1235 3.39003 16.1711 3.46766 16.2114 3.53416C16.2571 3.60953 16.3114 3.69851 16.3719 3.80708L16.6339 3.66102ZM16.3721 3.20845L16.6288 3.05324C16.5153 2.8654 16.3549 2.71024 16.1635 2.60291L16.0168 2.8646L15.8701 3.1263C15.971 3.18286 16.0555 3.26465 16.1154 3.36366L16.3721 3.20845ZM16.0168 2.8646L16.1635 2.60291C15.972 2.49559 15.756 2.43977 15.5365 2.44092L15.538 2.74092L15.5396 3.04091C15.6553 3.04031 15.7692 3.06973 15.8701 3.1263L16.0168 2.8646ZM15.538 2.74092V2.44092H13.3911V2.74092V3.04092H15.538V2.74092ZM13.3911 2.74092V2.44092C13.262 2.44092 13.1381 2.49223 13.0468 2.58356L13.2589 2.79569L13.471 3.00782C13.4498 3.02901 13.4211 3.04092 13.3911 3.04092V2.74092ZM13.2589 2.79569L13.0468 2.58356C12.9554 2.67489 12.9041 2.79877 12.9041 2.92793H13.2041H13.5041C13.5041 2.95789 13.4922 2.98663 13.471 3.00782L13.2589 2.79569ZM13.2041 2.92793H12.9041C12.9041 3.05709 12.9554 3.18097 13.0468 3.2723L13.2589 3.06017L13.471 2.84803C13.4922 2.86922 13.5041 2.89796 13.5041 2.92793H13.2041ZM13.2589 3.06017L13.0468 3.2723C13.1381 3.36363 13.262 3.41494 13.3911 3.41494V3.11494V2.81494C13.4211 2.81494 13.4498 2.82685 13.471 2.84803L13.2589 3.06017ZM13.3911 3.11494H13.6911V3.09998H13.3911H13.0911V3.11494H13.3911ZM6.04526 8.15307V7.85307H5.85824V8.15307V8.45307H6.04526V8.15307ZM5.85824 8.15307L5.55825 8.15074C5.55622 8.41247 5.61143 8.67148 5.72003 8.90963L5.99299 8.78515L6.26595 8.66067C6.19364 8.50212 6.15688 8.32967 6.15823 8.1554L5.85824 8.15307ZM5.99299 8.78515L5.72003 8.90963C5.82863 9.14777 5.98799 9.35929 6.18694 9.52936L6.38188 9.30133L6.57682 9.0733C6.44436 8.96006 6.33826 8.81923 6.26595 8.66067L5.99299 8.78515ZM6.38188 9.30133L6.19613 9.53691C6.55916 9.82314 7.008 9.9788 7.47029 9.9788V9.6788V9.3788C7.14278 9.3788 6.82481 9.26853 6.56762 9.06575L6.38188 9.30133ZM7.47029 9.6788V9.9788C7.93259 9.9788 8.38142 9.82314 8.74445 9.53691L8.55871 9.30133L8.37297 9.06575C8.11578 9.26853 7.79781 9.3788 7.47029 9.3788V9.6788ZM8.55871 9.30133L8.75436 9.52876C9.04847 9.27574 9.25276 8.93431 9.33669 8.55553L9.0438 8.49063L8.7509 8.42572C8.695 8.678 8.55894 8.9054 8.36306 9.07391L8.55871 9.30133ZM9.0438 8.49063L9.33669 8.55553C9.42063 8.17675 9.37968 7.78097 9.21998 7.4274L8.94658 7.55089L8.67317 7.67438C8.77953 7.90986 8.8068 8.17345 8.7509 8.42572L9.0438 8.49063ZM8.94658 7.55089L9.21957 7.4265C9.11131 7.1889 8.95182 6.9782 8.75255 6.8095L8.55871 7.03847L8.36487 7.26745C8.4966 7.37896 8.60202 7.51823 8.67358 7.67528L8.94658 7.55089ZM8.55871 7.03847L8.74445 6.80289C8.38142 6.51666 7.93259 6.361 7.47029 6.361V6.661V6.961C7.79781 6.961 8.11578 7.07128 8.37297 7.27406L8.55871 7.03847ZM7.47029 6.661V6.361C7.008 6.361 6.55916 6.51666 6.19613 6.80289L6.38188 7.03847L6.56762 7.27406C6.82481 7.07128 7.14278 6.961 7.47029 6.961V6.661ZM6.38188 7.03847L6.18613 6.81114C5.98923 6.98068 5.83145 7.19093 5.72369 7.42737L5.99668 7.55178L6.26967 7.67619C6.34143 7.51873 6.4465 7.37872 6.57763 7.26581L6.38188 7.03847ZM5.99668 7.55178L5.72369 7.42737C5.61594 7.66382 5.56076 7.92083 5.56199 8.18066L5.86198 8.17925L6.16198 8.17784C6.16117 8.00481 6.19791 7.83365 6.26967 7.67619L5.99668 7.55178ZM5.86198 8.17925V8.47925H6.23601V8.17925V7.87925H5.86198V8.17925ZM6.23601 8.17925L6.53592 8.17194C6.53302 8.05288 6.55602 7.93461 6.60333 7.82531L6.32802 7.70613L6.05271 7.58695C5.97086 7.77601 5.93108 7.98061 5.9361 8.18657L6.23601 8.17925ZM6.32802 7.70613L6.60333 7.82531C6.65065 7.71601 6.72114 7.6183 6.80995 7.53894L6.61003 7.31525L6.41012 7.09157C6.25651 7.22885 6.13456 7.39788 6.05271 7.58695L6.32802 7.70613ZM6.61003 7.31525L6.79261 7.5533C6.98383 7.40664 7.21809 7.32715 7.45907 7.32715V7.02715V6.72715C7.08605 6.72715 6.72345 6.85019 6.42746 7.07721L6.61003 7.31525ZM7.45907 7.02715V7.32715C7.70006 7.32715 7.93432 7.40664 8.12554 7.5533L8.30811 7.31525L8.49069 7.07721C8.1947 6.85019 7.83209 6.72715 7.45907 6.72715V7.02715ZM8.30811 7.31525L8.1082 7.53894C8.197 7.6183 8.2675 7.71601 8.31482 7.82531L8.59013 7.70613L8.86544 7.58695C8.78359 7.39788 8.66164 7.22885 8.50802 7.09157L8.30811 7.31525ZM8.59013 7.70613L8.31482 7.82531C8.36213 7.93461 8.38513 8.05288 8.38223 8.17194L8.68214 8.17925L8.98205 8.18657C8.98707 7.98061 8.94728 7.77601 8.86544 7.58695L8.59013 7.70613ZM8.68214 8.17925L8.38229 8.18889C8.38608 8.30664 8.36368 8.42377 8.3167 8.53181L8.59182 8.65143L8.86694 8.77104C8.94933 8.58155 8.98862 8.37613 8.98198 8.16962L8.68214 8.17925ZM8.59182 8.65143L8.3167 8.53181C8.26973 8.63985 8.19935 8.73611 8.11066 8.81366L8.30811 9.03951L8.50557 9.26537C8.66113 9.12937 8.78456 8.96053 8.86694 8.77104L8.59182 8.65143ZM8.30811 9.03951L8.12356 8.803C7.93373 8.95112 7.69985 9.03157 7.45907 9.03157V9.33157V9.63157C7.8336 9.63157 8.19739 9.50643 8.49267 9.27603L8.30811 9.03951ZM7.45907 9.33157V9.03157C7.21829 9.03157 6.98442 8.95112 6.79459 8.803L6.61003 9.03951L6.42548 9.27603C6.72076 9.50643 7.08455 9.63157 7.45907 9.63157V9.33157ZM6.61003 9.03951L6.80749 8.81366C6.7188 8.73611 6.64842 8.63985 6.60145 8.53181L6.32633 8.65143L6.05121 8.77104C6.13359 8.96053 6.25702 9.12937 6.41258 9.26537L6.61003 9.03951ZM6.32633 8.65143L6.60145 8.53181C6.55447 8.42377 6.53207 8.30664 6.53585 8.18889L6.23601 8.17925L5.93616 8.16962C5.92953 8.37613 5.96882 8.58155 6.05121 8.77104L6.32633 8.65143ZM6.23601 8.17925L6.2768 7.88204L6.08605 7.85586L6.04526 8.15307L6.00446 8.45029L6.19522 8.47647L6.23601 8.17925ZM14.3823 8.15307V7.85307H14.1953V8.15307V8.45307H14.3823V8.15307ZM14.1953 8.15307L13.8953 8.15548C13.8974 8.4115 13.9541 8.66413 14.0617 8.89643L14.3339 8.77031L14.6061 8.64419C14.5344 8.48946 14.4966 8.32119 14.4953 8.15066L14.1953 8.15307ZM14.3339 8.77031L14.0617 8.89643C14.1694 9.12874 14.3254 9.33536 14.5194 9.50245L14.7152 9.27515L14.911 9.04785C14.7818 8.93655 14.6778 8.79893 14.6061 8.64419L14.3339 8.77031ZM14.7152 9.27515L14.5295 9.51079C14.8931 9.79729 15.3426 9.95307 15.8055 9.95307V9.65307V9.35307C15.4773 9.35307 15.1586 9.24262 14.9008 9.03951L14.7152 9.27515ZM15.8055 9.65307V9.95307C16.2684 9.95307 16.7178 9.79729 17.0814 9.51079L16.8958 9.27515L16.7101 9.03951C16.4523 9.24262 16.1337 9.35307 15.8055 9.35307V9.65307ZM16.8958 9.27515L17.0915 9.50247C17.2855 9.33539 17.4416 9.12876 17.5492 8.89645L17.277 8.77033L17.0048 8.64421C16.9331 8.79893 16.8292 8.93655 16.7 9.04783L16.8958 9.27515ZM17.277 8.77033L17.5492 8.89645C17.6569 8.66413 17.7136 8.41149 17.7156 8.15545L17.4156 8.15307L17.1157 8.15069C17.1143 8.32122 17.0765 8.48948 17.0048 8.64421L17.277 8.77033ZM17.4156 8.15307L17.7156 8.15448C17.7169 7.89464 17.6617 7.63763 17.5539 7.40119L17.2809 7.5256L17.008 7.65001C17.0797 7.80747 17.1165 7.97862 17.1156 8.15166L17.4156 8.15307ZM17.2809 7.5256L17.5539 7.40119C17.4462 7.16475 17.2884 6.9545 17.0915 6.78495L16.8958 7.01229L16.7 7.23963C16.8311 7.35254 16.9362 7.49255 17.008 7.65001L17.2809 7.5256ZM16.8958 7.01229L17.0814 6.77665C16.7178 6.49016 16.2684 6.33437 15.8055 6.33437V6.63437V6.93437C16.1337 6.93437 16.4523 7.04482 16.7101 7.24793L16.8958 7.01229ZM15.8055 6.63437V6.33437C15.3426 6.33437 14.8931 6.49016 14.5295 6.77665L14.7152 7.01229L14.9008 7.24793C15.1586 7.04482 15.4773 6.93437 15.8055 6.93437V6.63437ZM14.7152 7.01229L14.5194 6.78495C14.3225 6.9545 14.1647 7.16475 14.057 7.40119L14.33 7.5256L14.603 7.65001C14.6747 7.49255 14.7798 7.35254 14.9109 7.23963L14.7152 7.01229ZM14.33 7.5256L14.057 7.40119C13.9492 7.63763 13.8941 7.89464 13.8953 8.15448L14.1953 8.15307L14.4953 8.15166C14.4945 7.97862 14.5312 7.80747 14.603 7.65001L14.33 7.5256ZM14.1953 8.15307V8.45307H14.5693V8.15307V7.85307H14.1953V8.15307ZM14.5693 8.15307L14.8691 8.14288C14.8651 8.02456 14.8874 7.90683 14.9345 7.79818L14.6591 7.679L14.3838 7.55982C14.3015 7.75002 14.2624 7.95613 14.2695 8.16327L14.5693 8.15307ZM14.6591 7.679L14.9345 7.79818C14.9815 7.68954 15.0521 7.59271 15.1411 7.51467L14.9433 7.28907L14.7456 7.06347C14.5897 7.20009 14.4662 7.36962 14.3838 7.55982L14.6591 7.679ZM14.9433 7.28907L15.1269 7.52636C15.3174 7.37898 15.5515 7.29901 15.7924 7.29901V6.99901V6.69901C15.4186 6.69901 15.0554 6.82309 14.7598 7.05178L14.9433 7.28907ZM15.7924 6.99901V7.29901C16.0333 7.29901 16.2673 7.37898 16.4579 7.52636L16.6414 7.28907L16.825 7.05178C16.5293 6.82309 16.1661 6.69901 15.7924 6.69901V6.99901ZM16.6414 7.28907L16.4415 7.51274C16.5299 7.5918 16.6002 7.68907 16.6475 7.79786L16.9226 7.67824L17.1978 7.55862C17.1159 7.37043 16.9943 7.20217 16.8413 7.06541L16.6414 7.28907ZM16.9226 7.67824L16.6475 7.79786C16.6948 7.90665 16.718 8.02439 16.7155 8.143L17.0154 8.14933L17.3154 8.15566C17.3197 7.9505 17.2796 7.74682 17.1978 7.55862L16.9226 7.67824ZM17.0154 8.14933L16.7156 8.15839C16.7191 8.27629 16.6966 8.39352 16.6496 8.5017L16.9247 8.62131L17.1998 8.74093C17.2821 8.55167 17.3215 8.34656 17.3153 8.14027L17.0154 8.14933ZM16.9247 8.62131L16.6496 8.5017C16.6025 8.60987 16.5322 8.70631 16.4435 8.78412L16.6414 9.00959L16.8393 9.23507C16.9944 9.09893 17.1175 8.93019 17.1998 8.74093L16.9247 8.62131ZM16.6414 9.00959L16.4568 8.77315C16.2675 8.92092 16.0343 9.00119 15.7942 9.00119V9.30119V9.60119C16.1682 9.60119 16.5314 9.47618 16.8261 9.24603L16.6414 9.00959ZM15.7942 9.30119V9.00119C15.5541 9.00119 15.3209 8.92092 15.1317 8.77315L14.9471 9.00959L14.7624 9.24603C15.0571 9.47618 15.4203 9.60119 15.7942 9.60119V9.30119ZM14.9471 9.00959L15.1449 8.78405C15.0562 8.70629 14.9859 8.60988 14.9388 8.50173L14.6637 8.62135L14.3886 8.74096C14.4709 8.93026 14.5941 9.09902 14.7493 9.23513L14.9471 9.00959ZM14.6637 8.62135L14.9388 8.50173C14.8918 8.39358 14.8693 8.27636 14.8729 8.15849L14.573 8.14933L14.2732 8.14018C14.2669 8.3465 14.3063 8.55166 14.3886 8.74096L14.6637 8.62135ZM14.573 8.14933L14.5672 7.84939L14.3764 7.85313L14.3823 8.15307L14.3882 8.45301L14.5789 8.44927L14.573 8.14933Z" fill="black" mask="url(#path-1-outside-1_8467_6596)"/>
  </g>
  <defs>
    <clipPath id="clip0_8467_6596">
      <rect width="18" height="9.35065" fill="white" transform="translate(0 0.324707)"/>
    </clipPath>
  </defs>
</svg>