<svg xmlns="http://www.w3.org/2000/svg" width="25" height="33" viewBox="0 0 25 33"><defs><style>.ads,.bds{fill:#d62e55;}.ads{fill-rule:evenodd;}.bds{font-size:14px;text-decoration:underline;}</style></defs><g transform="translate(1)"><g transform="translate(4)"><path class="ads" d="M29.3,35.958,26.042,32.7l8.375-8.374,1.238,1.238L29.092,32.13a.55.55,0,0,0,.778.778l6.564-6.564,1.24,1.24Zm-4.93,1.675,1.159-3.889,2.729,2.729ZM38.839,27.194l-2.015-2.015s0,0,0,0h0l-2.015-2.015a.55.55,0,0,0-.778,0l-9.153,9.153a.533.533,0,0,0-.126.213c0,.007-.009.011-.011.019l-1.715,5.747a.55.55,0,0,0,.684.684l5.748-1.714c.008,0,.013-.01.02-.012a.563.563,0,0,0,.212-.126l9.152-9.153a.55.55,0,0,0,0-.778Z" transform="translate(-23 -23)"></path></g><text class="bds underline" transform="translate(24 29)"><tspan x="-24.276" y="0" class="underline">Edit</tspan></text></g></svg>
