<svg width="20" height="20" viewBox="0 0 20 20" fill="none" xmlns="http://www.w3.org/2000/svg">
<path d="M18.9496 17.8453L18.952 17.8422C17.2502 16.0664 15.6754 16.7505 14.2838 17.3563C13.2895 17.7905 12.3489 18.2006 11.321 17.8073C10.7964 17.6086 10.464 17.3201 10.3303 16.9528C10.2195 16.6505 10.249 16.3235 10.3135 16.0567L11.053 16.1892C11.4257 16.2549 11.7865 16.0043 11.8515 15.6322L12.7596 10.5454C14.9805 10.1155 16.6582 8.16374 16.6582 5.81758C16.6582 3.15647 14.5012 1 11.8407 1C10.3207 1 8.96697 1.70638 8.08355 2.80659H3.40869V8.22636H7.67164C8.01189 8.81471 8.47859 9.31815 9.02659 9.7162L8.08957 14.9613C8.02333 15.3335 8.27384 15.6936 8.6466 15.7598L9.29758 15.8749C9.20725 16.288 9.17653 16.7944 9.35719 17.2973C9.59446 17.9621 10.1322 18.4601 10.9512 18.7732C12.3754 19.3146 13.6081 18.7769 14.6957 18.3035C16.0356 17.7188 17.0015 17.2985 18.2071 18.5558L18.2107 18.5516C18.301 18.6335 18.4215 18.6829 18.5515 18.6829C18.8364 18.6829 19.0658 18.4529 19.0658 18.1698C19.0658 18.0476 19.0225 17.9344 18.9496 17.8453ZM11.8394 3.40879C13.1679 3.40879 14.2482 4.48913 14.2482 5.81758C14.2482 7.14542 13.1679 8.22636 11.8394 8.22636C10.511 8.22636 9.43066 7.14542 9.43066 5.81758C9.43066 4.48913 10.511 3.40879 11.8394 3.40879Z" fill="black"/>
<path d="M11.8396 7.02195C12.5048 7.02195 13.044 6.48272 13.044 5.81755C13.044 5.15238 12.5048 4.61316 11.8396 4.61316C11.1745 4.61316 10.6353 5.15238 10.6353 5.81755C10.6353 6.48272 11.1745 7.02195 11.8396 7.02195Z" fill="black"/>
<path d="M1 3.40944V7.62301C1 7.95663 1.26978 8.22641 1.6028 8.22641H2.80659V2.80664H1.6028C1.26978 2.80664 1 3.07642 1 3.40944Z" fill="black"/>
</svg>
