<svg xmlns="http://www.w3.org/2000/svg" width="12" height="12" viewBox="0 0 12 12"><defs><style>.a{fill:#D62E55;}</style></defs><g transform="translate(0 0)"><path className="a" d="M54.8,94.041H58.02a.517.517,0,1,0,0-1.034H54.8a1.793,1.793,0,0,0-1.79,1.788L53,101.719a1.791,1.791,0,0,0,1.788,1.793l6.934.01h0a1.791,1.791,0,0,0,1.79-1.791V98.5a.517.517,0,1,0-1.034,0v3.23a.756.756,0,0,1-.756.756h0l-6.934-.01a.756.756,0,0,1-.755-.757l.01-6.924A.757.757,0,0,1,54.8,94.041Z" transform="translate(-53 -91.522)"></path><path className="a" d="M235.9,57.6a.668.668,0,0,0,.668-.668v-3.26A.668.668,0,0,0,235.9,53h-3.26a.668.668,0,0,0,0,1.336h1.575l-6.023,6.023a.668.668,0,0,0,.945.945l6.1-6.1v1.721A.668.668,0,0,0,235.9,57.6Z" transform="translate(-224.568 -53)"></path></g></svg>
