<svg width="20" height="20" viewBox="0 0 20 20" fill="none" xmlns="http://www.w3.org/2000/svg">
<g clip-path="url(#clip0_13682_1611)">
<path d="M8.16923 2.34463C8.11301 2.34307 8.0566 2.34229 8 2.34229C4.68629 2.34229 2 5.02857 2 8.34229C2 11.656 4.68629 14.3423 8 14.3423C11.3137 14.3423 14 11.656 14 8.34229C14 8.28569 13.9992 8.22928 13.9977 8.17306L15.7642 6.40651C15.9182 7.02636 16 7.67478 16 8.34229C16 12.7606 12.4183 16.3423 8 16.3423C3.58172 16.3423 0 12.7606 0 8.34229C0 3.92401 3.58172 0.342285 8 0.342285C8.66751 0.342285 9.31593 0.424038 9.93578 0.578076L8.16923 2.34463Z" fill="#151515"/>
<path d="M4 8.34224C4 6.4784 5.27477 4.9123 7 4.46826V6.6098C6.4022 6.95561 6 7.60196 6 8.34224C6 9.44681 6.89543 10.3422 8 10.3422C8.74028 10.3422 9.38663 9.94004 9.73244 9.34224H11.874C11.4299 11.0675 9.86384 12.3423 8 12.3423C5.79086 12.3423 4 10.5514 4 8.34224Z" fill="#151515"/>
<path d="M14.0001 2.34229L13.0001 0.342285L10.0001 3.34229V4.92808L7.79297 7.13518L9.20719 8.5494L11.4143 6.34229H13.0001L16.0001 3.34229L14.0001 2.34229Z" fill="#151515"/>
</g>
<defs>
<clipPath id="clip0_13682_1611">
<rect width="16" height="16" fill="white" transform="translate(0 0.342285)"/>
</clipPath>
</defs>
</svg>
