<svg xmlns="http://www.w3.org/2000/svg" height="49.352" viewBox="0 0 53 49.352" class="mb"><defs><style>.asw,.bsw{fill:#D62E55;}.asw{font-size:14px;text-decoration:underline;}.bsw{stroke:#D62E55;stroke-width:0.7px;}</style></defs><g transform="translate(-315 -300.648)"><text class="asw" transform="translate(315 318)"><tspan x="7.341" y="11">Order </tspan><tspan x="8.02" y="25">again</tspan></text><path class="bsw" d="M23.3,21.294l1.679.831a5.862,5.862,0,0,0-11.344.31.3.3,0,1,1-.574-.13,6.455,6.455,0,0,1,12.477-.395l.809-1.636a.3.3,0,0,1,.525.255l-1.134,2.3a.3.3,0,0,1-.395.134l-2.3-1.138a.3.3,0,0,1,.262-.531ZM11.875,26.815a.3.3,0,1,0,.531.262l.752-1.517A6.455,6.455,0,0,0,25.646,25.2a.3.3,0,1,0-.576-.132,5.862,5.862,0,0,1-11.4.1l1.776.882a.3.3,0,1,0,.264-.523l-2.3-1.148a.3.3,0,0,0-.395.134Z" transform="translate(322.156 283.701)"></path></g></svg>
