<svg class="ds" xmlns="http://www.w3.org/2000/svg" width="86" height="32.352" viewBox="0 0 86 32.352"><defs><style>.aws,.bws{fill:#D62E55;}.aws{font-size:14px;font-family:"sofia-pro";text-decoration:underline;}.bws{stroke:#D62E55;stroke-width:0.7px;}</style></defs><g transform="translate(-291 -300.648)"><text class="aws" transform="translate(291 318)"><tspan x="3.709" y="11">Order again</tspan></text><path class="bws" d="M23.3,21.294l1.679.831a5.862,5.862,0,0,0-11.344.31.3.3,0,1,1-.574-.13,6.455,6.455,0,0,1,12.477-.395l.809-1.636a.3.3,0,0,1,.525.255l-1.134,2.3a.3.3,0,0,1-.395.134l-2.3-1.138a.3.3,0,0,1,.262-.531ZM11.875,26.815a.3.3,0,1,0,.531.262l.752-1.517A6.455,6.455,0,0,0,25.646,25.2a.3.3,0,1,0-.576-.132,5.862,5.862,0,0,1-11.4.1l1.776.882a.3.3,0,1,0,.264-.523l-2.3-1.148a.3.3,0,0,0-.395.134Z" transform="translate(314.649 283.701)"></path></g></svg>
