<svg xmlns="http://www.w3.org/2000/svg" width="20" height="20" viewBox="0 0 20 20" fill="none">
    <path d="M8.15903 8.49189C7.31101 8.49189 6.62109 7.80197 6.62109 6.95395C6.62109 6.10593 7.31101 5.41602 8.15903 5.41602C9.00705 5.41602 9.69696 6.10593 9.69696 6.95395C9.69696 7.80197 9.00705 8.49189 8.15903 8.49189ZM8.15903 6.44131C7.87636 6.44131 7.64638 6.67128 7.64638 6.95395C7.64638 7.23662 7.87636 7.4666 8.15903 7.4666C8.4417 7.4666 8.67167 7.23662 8.67167 6.95395C8.67167 6.67128 8.4417 6.44131 8.15903 6.44131Z" fill="#151515"/>
    <path d="M11.9754 12.3068C11.1274 12.3068 10.4375 11.6169 10.4375 10.7689C10.4375 9.92087 11.1274 9.23096 11.9754 9.23096C12.8235 9.23096 13.5134 9.92087 13.5134 10.7689C13.5134 11.6169 12.8235 12.3068 11.9754 12.3068ZM11.9754 10.2562C11.6928 10.2562 11.4628 10.4862 11.4628 10.7689C11.4628 11.0516 11.6928 11.2815 11.9754 11.2815C12.2581 11.2815 12.4881 11.0516 12.4881 10.7689C12.4881 10.4862 12.2581 10.2562 11.9754 10.2562Z" fill="#151515"/>
    <path d="M12.0654 6.13818L12.7904 6.86317L8.06873 11.5848L7.34375 10.8598L12.0654 6.13818Z" fill="#151515"/>
    <path d="M16.7995 18.3332H3.33398V1.75837L4.83067 2.34419L5.91983 1.6665L6.95644 2.31145L7.99294 1.6665L9.0295 2.31145L10.0661 1.6665L11.1028 2.31148L12.1395 1.66654L13.1762 2.31148L14.213 1.66654L15.3024 2.34415L16.7995 1.75844V18.3332ZM4.35927 17.3079H15.7742V3.26059L15.1974 3.48626L14.213 2.87399L13.1763 3.51896L12.1395 2.87402L11.1028 3.51896L10.0661 2.87402L9.02954 3.519L7.993 2.87406L6.95657 3.519L5.91994 2.87402L4.93576 3.48629L4.35927 3.26066V17.3079Z" fill="#151515"/>
    <path d="M13.6854 14.2949H12.3184V15.3202H13.6854V14.2949Z" fill="#151515"/>
    <path d="M11.2932 14.2949H6.44922V15.3202H11.2932V14.2949Z" fill="#151515"/>
</svg>