<svg xmlns="http://www.w3.org/2000/svg" width="20" height="20" viewBox="0 0 20 20" fill="none">
  <circle cx="10" cy="10" r="10" fill="#CFCFCF"/>
  <path d="M8.00863 9.01726C6.90107 9.01726 6 8.11619 6 7.00863C6 5.90107 6.90107 5 8.00863 5C9.11619 5 10.0173 5.90107 10.0173 7.00863C10.0173 8.11619 9.11619 9.01726 8.00863 9.01726ZM8.00863 6.33909C7.63944 6.33909 7.33909 6.63944 7.33909 7.00863C7.33909 7.37782 7.63944 7.67817 8.00863 7.67817C8.37782 7.67817 8.67817 7.37782 8.67817 7.00863C8.67817 6.63944 8.37782 6.33909 8.00863 6.33909Z" fill="white"/>
  <path d="M12.9911 14.0007C11.8835 14.0007 10.9824 13.0996 10.9824 11.992C10.9824 10.8845 11.8835 9.9834 12.9911 9.9834C14.0986 9.9834 14.9997 10.8845 14.9997 11.992C14.9997 13.0996 14.0986 14.0007 12.9911 14.0007ZM12.9911 11.3225C12.6219 11.3225 12.3215 11.6228 12.3215 11.992C12.3215 12.3612 12.6219 12.6616 12.9911 12.6616C13.3602 12.6616 13.6606 12.3612 13.6606 11.992C13.6606 11.6228 13.3603 11.3225 12.9911 11.3225Z" fill="white"/>
  <path d="M13.1101 5.94336L14.0569 6.89023L7.89023 13.0569L6.94336 12.1101L13.1101 5.94336Z" fill="white"/>
</svg>