<svg width="25" height="24" viewBox="0 0 25 24" fill="none" xmlns="http://www.w3.org/2000/svg">
<path fill-rule="evenodd" clip-rule="evenodd" d="M11.193 0.0243841C10.9828 0.100649 10.8863 0.249494 10.9062 0.46715C10.9163 0.577807 10.9602 0.67954 11.1105 0.940649C11.2157 1.12355 11.3395 1.34179 11.3855 1.42562C11.4315 1.50945 11.6206 1.84616 11.8058 2.17386C11.991 2.50157 12.3778 3.18746 12.6654 3.69806C12.9529 4.20867 13.2593 4.75115 13.3463 4.90357C13.8085 5.7135 14.0873 6.22325 14.0873 6.25844C14.0873 6.28017 13.8441 6.71373 13.5469 7.22193C13.2497 7.73015 12.9174 8.30184 12.8084 8.49236C12.6994 8.68289 12.4028 9.19419 12.1491 9.62858C11.3145 11.0581 11.0743 11.4746 11.0552 11.5248C11.0371 11.5722 10.895 11.5735 7.79384 11.5538L4.55142 11.5332L4.4482 11.603C4.36647 11.6583 4.26682 11.8076 3.96941 12.3204C3.14806 13.7366 1.37452 16.7831 1.19506 17.0862C1.09033 17.263 0.977434 17.4726 0.944208 17.5519C0.887403 17.6874 0.886277 17.703 0.925383 17.8123C0.948276 17.8762 1.18149 18.3089 1.44366 18.7738C1.70581 19.2387 1.9972 19.7562 2.09122 19.9239C2.37997 20.439 2.95552 21.4601 3.12998 21.7667C3.26983 22.0126 3.42464 22.2886 3.9461 23.2217C4.26943 23.8002 4.33855 23.8858 4.50379 23.9129C4.65786 23.9382 11.239 23.9756 11.3266 23.9517C11.4568 23.9162 11.553 23.7891 11.8841 23.2153C12.0532 22.9222 12.2131 22.6454 12.2394 22.6003C12.5903 21.9981 12.6577 21.8715 12.6414 21.8448C12.63 21.8263 12.6346 21.8213 12.6526 21.8325C12.6694 21.843 12.6974 21.8233 12.7153 21.7883C12.7562 21.7087 13.0843 21.1434 13.2908 20.7968C13.3771 20.652 13.6828 20.1282 13.9701 19.6329C14.2574 19.1375 14.5614 18.6153 14.6455 18.4725L14.7985 18.2128L15.975 18.2161C16.6221 18.2179 18.0003 18.2275 19.0378 18.2375L20.9241 18.2557L21.0417 18.4662C21.1064 18.582 21.4087 19.1195 21.7136 19.6606C22.0184 20.2017 22.3797 20.8439 22.5165 21.0878C22.8099 21.6109 23.6086 23.0309 23.8649 23.4849C24.0828 23.8708 24.1429 23.9403 24.2968 23.9838C24.5699 24.0609 24.833 23.854 24.8325 23.5625C24.8323 23.4717 24.8022 23.3907 24.7056 23.2217C24.5753 22.9934 24.1696 22.2724 23.7467 21.5173C23.6144 21.2811 23.4923 21.0786 23.4755 21.0674C23.4587 21.0562 23.4535 21.0469 23.464 21.0466C23.4807 21.0463 23.4407 20.9696 23.2396 20.6167C23.2135 20.5709 23.151 20.4587 23.1007 20.3673C23.0504 20.2758 22.945 20.0887 22.8665 19.9516C22.788 19.8144 22.693 19.646 22.6555 19.5774C22.4434 19.1903 21.6918 17.8693 21.6716 17.8483C21.658 17.8341 21.6702 17.779 21.7 17.7202C21.7516 17.6183 22.8431 15.7383 24.2017 13.4114C24.8634 12.2779 24.8975 12.2128 24.8984 12.0777C24.9002 11.8346 24.715 11.6516 24.4671 11.6516C24.2345 11.6516 24.189 11.7062 23.6703 12.6077C23.5651 12.7906 23.2716 13.2957 23.0181 13.7301C21.8275 15.7707 21.3429 16.6024 21.1252 16.9788L20.889 17.387L18.9653 17.373C17.9073 17.3654 16.5332 17.3517 15.9118 17.3427L14.7819 17.3263L14.5394 16.8931C14.406 16.6548 14.1652 16.2291 14.0043 15.9471C13.8434 15.6651 13.6182 15.266 13.5039 15.0603C13.3896 14.8545 13.1485 14.4243 12.9683 14.1042C12.788 13.7841 12.4456 13.1758 12.2074 12.7524L11.7744 11.9826L11.9657 11.6578C12.0708 11.4791 12.2246 11.2144 12.3073 11.0696C12.3901 10.9248 12.662 10.4572 12.9116 10.0304C13.1611 9.60364 13.5752 8.89281 13.8318 8.45079C14.0884 8.00877 14.4076 7.46006 14.5412 7.23143C14.6748 7.0028 14.8017 6.78091 14.8231 6.73831C14.8619 6.66102 14.8625 6.66088 15.0861 6.67541C15.2094 6.68341 16.6601 6.69738 18.31 6.70642C21.6121 6.72454 21.3764 6.73571 21.5486 6.55314C21.622 6.47532 21.6311 6.44683 21.6311 6.2943C21.6311 6.15632 21.6182 6.10558 21.5648 6.03391C21.4289 5.85117 21.6453 5.86364 18.0864 5.83358C16.3062 5.81856 14.8462 5.80268 14.842 5.79833C14.8359 5.79192 14.1621 4.59626 13.8616 4.05833C13.8232 3.98974 13.6997 3.7715 13.587 3.57336C13.352 3.1601 12.4152 1.49682 12.1276 0.982218C11.6614 0.147983 11.6448 0.121767 11.5452 0.0648724C11.4225 -0.0052685 11.3103 -0.0181549 11.193 0.0243841ZM10.8094 12.4448L11.0354 12.4601L11.1699 12.7002C11.2439 12.8322 11.5578 13.3892 11.8675 13.9379C12.1772 14.4866 12.6969 15.4095 13.0223 15.9886C13.3477 16.5678 13.7081 17.2086 13.8231 17.4127C13.9382 17.6167 14.0323 17.7887 14.0323 17.7949C14.0323 17.805 13.6023 18.553 13.3581 18.9678C13.2146 19.2116 11.9953 21.302 11.8705 21.5181C11.7007 21.8123 11.4035 22.3242 11.1952 22.6813L10.9608 23.0831L7.91399 23.0744C5.09625 23.0663 4.86438 23.0621 4.83055 23.0189C4.81046 22.9933 4.61196 22.648 4.3895 22.2517C3.76384 21.1373 3.05891 19.8852 2.41732 18.7489C2.09548 18.1789 1.83619 17.705 1.84108 17.6958C1.85721 17.6657 2.98053 15.7343 3.53511 14.7831C3.68176 14.5317 4.05381 13.8922 4.3619 13.3621L4.92209 12.3982L7.75272 12.4138C9.30957 12.4224 10.6851 12.4363 10.8094 12.4448ZM5.10073 12.9192C4.90126 13.0211 4.82585 13.1349 4.82602 13.3338C4.82613 13.4952 4.89274 13.6156 5.02892 13.7004L5.12766 13.762L7.82802 13.7969C9.35604 13.8166 10.5662 13.8214 10.6155 13.808C10.7146 13.7809 10.8626 13.6249 10.8886 13.5201C10.8983 13.4813 10.8999 13.3932 10.8922 13.3242C10.8751 13.1717 10.7448 13.021 10.5981 12.984C10.5446 12.9705 9.77127 12.9519 8.87948 12.9427C7.98769 12.9336 6.78193 12.9198 6.2 12.9121C5.61807 12.9044 5.1234 12.9076 5.10073 12.9192ZM2.62329 17.2914C2.49965 17.3731 2.4196 17.56 2.44642 17.7042C2.45631 17.7574 2.60386 18.0479 2.77428 18.3497C3.1164 18.9556 3.25735 19.2064 4.28982 21.0462C4.67902 21.7397 5.03359 22.3652 5.07781 22.4362C5.31541 22.8179 5.87022 22.672 5.87022 22.2279C5.87022 22.0825 5.87643 22.0958 5.49781 21.4342C5.38876 21.2437 4.85158 20.2897 4.30408 19.3142C3.75656 18.3387 3.27849 17.4933 3.24169 17.4356C3.10291 17.2177 2.83075 17.1543 2.62329 17.2914ZM12.8918 17.2793C12.7164 17.3355 12.7988 17.2068 11.394 19.619C11.0568 20.1982 10.5953 20.9901 10.3685 21.3788C9.99697 22.0155 9.95501 22.1005 9.94443 22.2379C9.93467 22.3643 9.94371 22.4068 9.99747 22.4873C10.1228 22.6749 10.3721 22.7345 10.5677 22.6236C10.6489 22.5776 10.722 22.4779 10.9285 22.1317C11.0709 21.8929 11.2077 21.6601 11.2324 21.6143C11.2879 21.5118 11.506 21.1356 12.052 20.201C12.2835 19.8047 12.5785 19.2996 12.7074 19.0786C12.8363 18.8576 13.0157 18.5521 13.106 18.3997C13.3514 17.9856 13.4552 17.7791 13.4552 17.7051C13.4552 17.4273 13.1499 17.1966 12.8918 17.2793Z" fill="black"/>
</svg>
