<svg width="20" height="20" viewBox="0 0 20 20" fill="none" xmlns="http://www.w3.org/2000/svg">
<g clip-path="url(#clip0_13682_1755)">
<path d="M4.85859 9.46317C4.84059 8.35923 5.0342 4.62078 8.28187 2.86384L8.79934 2.58392C8.86364 2.46763 8.89992 2.40259 8.89992 2.40259C5.14698 2.47199 1.8625 5.05432 0.912509 8.68242L0.497559 10.2669L1.78899 9.25951C2.20159 8.93766 2.71722 8.80195 3.24095 8.87736C3.72755 8.94743 4.1663 9.20442 4.47623 9.60106L4.869 10.1035L4.85859 9.46317Z" fill="black"/>
<path d="M17.499 10.7674C17.2769 10.7674 17.0742 10.6185 17.0153 10.3936L16.6004 8.80915C16.326 7.76125 15.8459 6.79642 15.1735 5.94152C15.0026 5.72429 15.0403 5.40968 15.2575 5.23885C15.4747 5.06796 15.7893 5.10554 15.9601 5.3228C16.718 6.28633 17.2591 7.374 17.5685 8.5556L17.9834 10.1401C18.0534 10.4075 17.8935 10.6809 17.6261 10.7509C17.5836 10.762 17.541 10.7674 17.499 10.7674Z" fill="black"/>
<path d="M9.00586 2.46094L9.74446 2.86066C12.9921 4.61827 13.1857 8.35549 13.1676 9.45905L13.1486 10.6231L12.317 9.80833C11.9905 9.48833 11.5479 9.30478 11.103 9.30478C10.6336 9.30478 10.1937 9.49055 9.86424 9.82784L9.00586 10.7067V2.46094Z" fill="black"/>
<path d="M15.254 8.82664C15.2247 8.54205 14.965 8.3418 14.6848 8.38209C14.3101 8.43602 13.9587 8.57791 13.6527 8.79282C13.5713 7.41631 13.132 4.92443 11.146 3.21861C11.7073 3.38251 12.2516 3.60796 12.7654 3.89259C12.9976 4.02123 13.2972 3.95988 13.4421 3.73748C13.6021 3.49177 13.5186 3.16644 13.2667 3.0262C11.9942 2.31773 10.5556 1.92907 9.10659 1.90225C9.07006 1.90151 9.03438 1.90577 8.99947 1.91266C8.96392 1.90548 8.92764 1.90123 8.89062 1.90225C4.91448 1.97583 1.43474 4.71184 0.428252 8.55572L0.017661 10.1237C-0.0355657 10.327 0.0330243 10.5481 0.203075 10.6716C0.291247 10.7356 0.394431 10.7673 0.497404 10.7673C0.606389 10.7673 0.715092 10.7318 0.805198 10.6615L2.09663 9.65411C2.3454 9.46005 2.64342 9.35746 2.95852 9.35746C3.02827 9.35746 3.09929 9.36263 3.16943 9.37272C3.52767 9.42433 3.85167 9.61488 4.08177 9.90924L4.20903 10.0721C4.29481 10.1818 4.34245 10.3166 4.34474 10.4559L4.34758 10.6295C4.35018 10.789 4.42268 10.9425 4.55198 11.036C4.75659 11.1839 5.02835 11.1571 5.19942 10.9885L6.03203 10.1678C6.26061 9.94236 6.56957 9.81186 6.88137 9.80848C7.15017 9.80557 7.38147 9.59966 7.3936 9.33113C7.4065 9.04426 7.17777 8.80762 6.89371 8.80762C6.33005 8.80762 5.773 9.03357 5.35843 9.42788C5.34521 8.36641 5.54455 4.93631 8.49047 3.32046V10.7067C8.49047 10.983 8.71449 11.2071 8.99089 11.2071C8.99328 11.2071 8.9956 11.2067 8.99799 11.2067C9.00063 11.2068 9.00333 11.2071 9.00601 11.2071C9.13827 11.2071 9.26806 11.1547 9.36411 11.0563L10.2225 10.1775C10.457 9.93744 10.7698 9.80521 11.1033 9.80521C11.4184 9.80521 11.7332 9.93663 11.967 10.1658L12.7986 10.9806C12.97 11.1485 13.2414 11.1747 13.4455 11.0266C13.5745 10.933 13.6468 10.7796 13.6494 10.6203L13.6521 10.4561C13.6543 10.3168 13.702 10.1821 13.7878 10.0723L13.9151 9.90931C14.1424 9.61853 14.4613 9.42904 14.8144 9.37473C15.0812 9.33359 15.2816 9.09527 15.254 8.82664ZM3.31212 8.38209C3.19484 8.36521 3.07584 8.3566 2.95852 8.3566C2.41828 8.3566 1.90738 8.53238 1.48108 8.86496L1.35634 8.96227L1.39642 8.8092C2.11118 6.0791 4.23192 3.97914 6.85905 3.21502C4.86814 4.91929 4.42661 7.41346 4.34452 8.79296C4.03852 8.57801 3.687 8.43609 3.31212 8.38209ZM11.1032 8.80438C10.498 8.80438 9.93093 9.04369 9.50649 9.47819V3.32046C12.4487 4.93431 12.6512 8.35786 12.6386 9.42387C12.2221 9.03002 11.6651 8.80438 11.1032 8.80438Z" fill="black"/>
<path d="M7.87141 18.7825C6.91948 18.7825 6.14502 18.008 6.14502 17.0561C6.14502 16.7797 6.36904 16.5557 6.64543 16.5557C6.92183 16.5557 7.14585 16.7797 7.14585 17.0561C7.14585 17.4562 7.47136 17.7817 7.87144 17.7817C8.27152 17.7817 8.59703 17.4562 8.59703 17.0561V12.8527C8.59703 12.5763 8.82105 12.3523 9.09745 12.3523C9.37385 12.3523 9.59786 12.5763 9.59786 12.8527V17.0561C9.59779 18.008 8.82333 18.7825 7.87141 18.7825Z" fill="black"/>
</g>
<defs>
<clipPath id="clip0_13682_1755">
<rect width="18" height="18" fill="white" transform="translate(0 1.34229)"/>
</clipPath>
</defs>
</svg>
