<svg width="20" height="20" viewBox="0 0 20 20" fill="none" xmlns="http://www.w3.org/2000/svg">
<mask id="mask0_13541_2081" style="mask-type:luminance" maskUnits="userSpaceOnUse" x="0" y="0" width="18" height="18">
<path d="M0 0H18V18H0V0Z" fill="white"/>
</mask>
<g mask="url(#mask0_13541_2081)">
<path d="M9 0C9.19891 0 9.38968 0.0790176 9.53033 0.21967C9.67098 0.360322 9.75 0.551088 9.75 0.75V2.25C9.75 2.44891 9.67098 2.63968 9.53033 2.78033C9.38968 2.92098 9.19891 3 9 3C8.80109 3 8.61032 2.92098 8.46967 2.78033C8.32902 2.63968 8.25 2.44891 8.25 2.25V0.75C8.25 0.551088 8.32902 0.360322 8.46967 0.21967C8.61032 0.0790176 8.80109 0 9 0ZM0 9C0 8.80109 0.0790176 8.61032 0.21967 8.46967C0.360322 8.32902 0.551088 8.25 0.75 8.25H2.25C2.44891 8.25 2.63968 8.32902 2.78033 8.46967C2.92098 8.61032 3 8.80109 3 9C3 9.19891 2.92098 9.38968 2.78033 9.53033C2.63968 9.67098 2.44891 9.75 2.25 9.75H0.75C0.551088 9.75 0.360322 9.67098 0.21967 9.53033C0.0790176 9.38968 0 9.19891 0 9ZM15.75 8.25C15.5511 8.25 15.3603 8.32902 15.2197 8.46967C15.079 8.61032 15 8.80109 15 9C15 9.19891 15.079 9.38968 15.2197 9.53033C15.3603 9.67098 15.5511 9.75 15.75 9.75H17.25C17.4489 9.75 17.6397 9.67098 17.7803 9.53033C17.921 9.38968 18 9.19891 18 9C18 8.80109 17.921 8.61032 17.7803 8.46967C17.6397 8.32902 17.4489 8.25 17.25 8.25H15.75ZM9.75 15.75C9.75 15.5511 9.67098 15.3603 9.53033 15.2197C9.38968 15.079 9.19891 15 9 15C8.80109 15 8.61032 15.079 8.46967 15.2197C8.32902 15.3603 8.25 15.5511 8.25 15.75V17.25C8.25 17.4489 8.32902 17.6397 8.46967 17.7803C8.61032 17.921 8.80109 18 9 18C9.19891 18 9.38968 17.921 9.53033 17.7803C9.67098 17.6397 9.75 17.4489 9.75 17.25V15.75ZM4.75725 13.2428C4.89785 13.3834 4.97684 13.5741 4.97684 13.773C4.97684 13.9719 4.89785 14.1626 4.75725 14.3032L3.6975 15.3638C3.62831 15.4354 3.54556 15.4925 3.45405 15.5318C3.36255 15.5711 3.26414 15.5918 3.16455 15.5927C3.06497 15.5936 2.96621 15.5746 2.87403 15.5369C2.78186 15.4992 2.69812 15.4435 2.6277 15.373C2.55728 15.3026 2.50159 15.2189 2.46388 15.1267C2.42617 15.0345 2.4072 14.9358 2.40806 14.8362C2.40893 14.7366 2.42962 14.6382 2.46892 14.5467C2.50823 14.4552 2.56537 14.3724 2.637 14.3032L3.6975 13.2428C3.83815 13.1021 4.02888 13.0232 4.22775 13.0232C4.42662 13.0232 4.6166 13.1021 4.75725 13.2428ZM15.3638 2.63625C15.5044 2.7769 15.5833 2.96763 15.5833 3.1665C15.5833 3.36537 15.5044 3.5561 15.3638 3.69675L14.3032 4.75725C14.2341 4.82888 14.1513 4.88602 14.0598 4.92533C13.9683 4.96463 13.8699 4.98532 13.7703 4.98619C13.6707 4.98705 13.572 4.96808 13.4798 4.93037C13.3876 4.89266 13.3039 4.83697 13.2335 4.76655C13.163 4.69613 13.1073 4.61239 13.0696 4.52022C13.0319 4.42804 13.0129 4.32928 13.0138 4.2297C13.0147 4.13011 13.0354 4.0317 13.0747 3.9402C13.114 3.84869 13.1711 3.76593 13.2428 3.69675L14.3032 2.63625C14.4439 2.49565 14.6346 2.41666 14.8335 2.41666C15.0324 2.41666 15.2231 2.49565 15.3638 2.63625ZM2.63625 2.63625C2.7769 2.49565 2.96763 2.41666 3.1665 2.41666C3.36537 2.41666 3.5561 2.49565 3.69675 2.63625L4.75725 3.69675C4.83056 3.76549 4.8893 3.84827 4.92999 3.94016C4.97069 4.03205 4.99249 4.13118 4.99413 4.23166C4.99576 4.33214 4.97718 4.43193 4.93949 4.52509C4.9018 4.61826 4.84578 4.70289 4.77474 4.77398C4.70371 4.84507 4.61911 4.90115 4.52597 4.93891C4.43284 4.97666 4.33306 4.99531 4.23258 4.99375C4.13209 4.99219 4.03295 4.97045 3.94103 4.92982C3.84911 4.88919 3.76629 4.83051 3.6975 4.75725L2.63625 3.6975C2.49565 3.55685 2.41666 3.36612 2.41666 3.16725C2.41666 2.96838 2.49565 2.7769 2.63625 2.63625ZM13.2428 13.2428C13.3834 13.1021 13.5741 13.0232 13.773 13.0232C13.9719 13.0232 14.1626 13.1021 14.3032 13.2428L15.3638 14.3032C15.4354 14.3724 15.4925 14.4552 15.5318 14.5467C15.5711 14.6382 15.5918 14.7366 15.5927 14.8362C15.5936 14.9358 15.5746 15.0345 15.5369 15.1267C15.4992 15.2189 15.4435 15.3026 15.373 15.373C15.3026 15.4435 15.2189 15.4992 15.1267 15.5369C15.0345 15.5746 14.9358 15.5936 14.8362 15.5927C14.7366 15.5918 14.6382 15.5711 14.5467 15.5318C14.4552 15.4925 14.3724 15.4354 14.3032 15.3638L13.2428 14.3032C13.1021 14.1626 13.0232 13.9719 13.0232 13.773C13.0232 13.5741 13.1021 13.3834 13.2428 13.2428ZM3.75 9C3.75 8.31056 3.8858 7.62787 4.14963 6.99091C4.41347 6.35395 4.80018 5.7752 5.28769 5.28769C5.7752 4.80018 6.35395 4.41347 6.99091 4.14963C7.62787 3.8858 8.31056 3.75 9 3.75C9.68944 3.75 10.3721 3.8858 11.0091 4.14963C11.646 4.41347 12.2248 4.80018 12.7123 5.28769C13.1998 5.7752 13.5865 6.35395 13.8504 6.99091C14.1142 7.62787 14.25 8.31056 14.25 9C14.25 10.3924 13.6969 11.7277 12.7123 12.7123C11.7277 13.6969 10.3924 14.25 9 14.25C7.60761 14.25 6.27226 13.6969 5.28769 12.7123C4.30312 11.7277 3.75 10.3924 3.75 9Z" fill="#151515"/>
</g>
</svg>
