<svg xmlns="http://www.w3.org/2000/svg" viewBox="0 0 20 24"><defs><style>.a{fill:#cecece;stroke:#cecece;stroke-width:0.3px;}</style></defs><path class="a" d="M24.85,28.563a.586.586,0,0,1,0-.811L27.4,25.193a.589.589,0,0,1,.4-.156.652.652,0,0,1,.4.156l2.547,2.559a.586.586,0,0,1,0,.811.579.579,0,0,1-.807,0l-1.584-1.591v6.3a.559.559,0,1,1-1.118,0v-6.3l-1.584,1.591A.579.579,0,0,1,24.85,28.563Zm12.826-6.8a.656.656,0,0,1,.124.343V36.738a.558.558,0,0,1-.559.562H18.359a.558.558,0,0,1-.559-.562V22.1a.471.471,0,0,1,.124-.343l4.1-5.242a.592.592,0,0,1,.435-.218H33.142a.543.543,0,0,1,.435.218Zm-9.317-.218h7.733l-3.2-4.088h-4.5v4.088Zm-8.851,0h7.733V17.455h-4.5ZM36.682,22.7H18.918v13.48H36.682Z" transform="translate(-17.65 -16.15)"/></svg>