<svg xmlns="http://www.w3.org/2000/svg" width="20.302" height="21.324" viewBox="0 0 20.302 21.324"><defs><style>.a{fill:#4dba86;stroke:#4dba86;stroke-width:0.3px;}</style></defs><path class="a" d="M23.6,25.516l-1.53-1.494a.49.49,0,0,1,0-.732.518.518,0,0,1,.749,0l1.155,1.128,2.9-2.836a.518.518,0,0,1,.749,0,.49.49,0,0,1,0,.732l-3.278,3.2a.537.537,0,0,1-.749,0ZM18.576,28.78h11.9A1.3,1.3,0,0,0,31.783,27.5v-4.88a.531.531,0,0,1,1.062,0V27.5a2.345,2.345,0,0,1-2.373,2.318h-11.9a2.369,2.369,0,0,1-1.311-.4v1.708a1.3,1.3,0,0,0,1.311,1.281H29.91a2.319,2.319,0,1,1-2.373,2.318,2.454,2.454,0,0,1,.375-1.25h-5.62a2.189,2.189,0,0,1,.375,1.25,2.374,2.374,0,0,1-4.746,0,2.565,2.565,0,0,1,.375-1.281,2.349,2.349,0,0,1-2.186-2.318V18.288l-2.935-1.22a.52.52,0,0,1-.281-.7.542.542,0,0,1,.718-.274l3.278,1.342c.031,0,.062.03.094.061l.031.03.031.031.031.03.031.031.031.03c0,.031.031.031.031.061s0,.031.031.061V27.5A1.4,1.4,0,0,0,18.576,28.78ZM28.63,34.727a1.281,1.281,0,1,0,1.28-1.25A1.271,1.271,0,0,0,28.63,34.727Zm-9.554,0a1.28,1.28,0,1,0,1.28-1.25A1.271,1.271,0,0,0,19.076,34.727Z" transform="translate(-12.693 -15.871)"/></svg>
