<svg xmlns="http://www.w3.org/2000/svg" viewBox="0 0 27 24"><defs><style>.a{fill:#cecece;}</style></defs><path class="a" d="M20.479,43.1h2.754a.526.526,0,0,0,.247-.041,2.871,2.871,0,0,0,5.672.041h8a2.875,2.875,0,0,0,5.672,0h2.261a.717.717,0,0,0,.7-.692V34.787a6.623,6.623,0,0,0-1.6-4.684,5.265,5.265,0,0,0-3.9-1.629h-4.11V26.192a.717.717,0,0,0-.7-.692H20.479a.717.717,0,0,0-.7.692V42.4A.717.717,0,0,0,20.479,43.1Zm19.506.978a1.466,1.466,0,1,1,1.48-1.466A1.467,1.467,0,0,1,39.985,44.074ZM36.162,29.858h4.11c2.548,0,4.11,1.874,4.11,4.888v6.925H42.7a2.935,2.935,0,0,0-2.713-1.914,2.853,2.853,0,0,0-2.713,1.914H36.2V29.858Zm-9.8,14.216a1.466,1.466,0,1,1,1.48-1.466A1.522,1.522,0,0,1,26.357,44.074ZM21.178,26.885H34.723V41.671H29.316a.526.526,0,0,0-.247.041,2.888,2.888,0,0,0-2.754-1.955,2.924,2.924,0,0,0-2.754,2,.78.78,0,0,0-.329-.081H21.178Z" transform="translate(-19.78 -25.5)"/></svg>