<svg xmlns="http://www.w3.org/2000/svg" viewBox="0 0 20 24"><defs><style>.a{isolation:isolate;}.b{fill:#cecece;stroke:#cecece;stroke-width:0.3px;}</style></defs><g class="a" transform="translate(0.15 0.15)"><path class="b" d="M33.576,16.618a.592.592,0,0,0-.435-.218H22.458a.543.543,0,0,0-.435.218l-4.1,5.242a.656.656,0,0,0-.124.343V36.838a.558.558,0,0,0,.559.562H37.241a.558.558,0,0,0,.559-.562V22.2a.471.471,0,0,0-.124-.343Zm-5.217.9h4.5l3.2,4.088H28.328V17.523Zm-5.621,0h4.5v4.088H19.508ZM36.682,36.245H18.918V22.766H36.682ZM24.477,30a.586.586,0,0,1,0-.811.579.579,0,0,1,.807,0l1.46,1.467,3.571-3.588a.579.579,0,0,1,.807,0,.586.586,0,0,1,0,.811l-3.944,3.963a.513.513,0,0,1-.4.156.652.652,0,0,1-.4-.156Z" transform="translate(-17.8 -16.4)"/></g></svg>