<svg width="65" height="44" viewBox="0 0 65 44" fill="none" xmlns="http://www.w3.org/2000/svg">
<path fill-rule="evenodd" clip-rule="evenodd" d="M15.8294 12.7589H10.6874L9.08046 8.3299L7.47357 12.7589H2.49219L6.58977 15.5007L4.98288 19.9297L9.08046 17.188L11.6515 15.5007L15.8294 12.7589ZM9.16211 17.258L12.0545 16.555L13.2597 19.9998L9.16211 17.258Z" fill="#00635B"/>
<path d="M15.8294 12.7589L16.1038 13.177L17.5026 12.2589H15.8294V12.7589ZM10.6874 12.7589L10.2173 12.9295L10.3369 13.2589H10.6874V12.7589ZM9.08046 8.3299L9.55048 8.15937L9.08046 6.86386L8.61044 8.15937L9.08046 8.3299ZM7.47357 12.7589V13.2589H7.82405L7.94359 12.9295L7.47357 12.7589ZM2.49219 12.7589V12.2589H0.845839L2.21413 13.1745L2.49219 12.7589ZM6.58977 15.5007L7.05979 15.6712L7.1934 15.303L6.86783 15.0852L6.58977 15.5007ZM4.98288 19.9297L4.51286 19.7592L3.99222 21.1942L5.26093 20.3453L4.98288 19.9297ZM9.08046 17.188L8.80612 16.7699L8.80241 16.7724L9.08046 17.188ZM11.6515 15.5007L11.3772 15.0827L11.6515 15.5007ZM9.16211 17.258L9.04402 16.7722L7.93849 17.0409L8.88405 17.6736L9.16211 17.258ZM12.0545 16.555L12.5265 16.3899L12.3768 15.9621L11.9364 16.0691L12.0545 16.555ZM13.2597 19.9998L12.9816 20.4154L14.2261 21.2481L13.7316 19.8347L13.2597 19.9998ZM15.8294 12.2589H10.6874V13.2589H15.8294V12.2589ZM11.1574 12.5884L9.55048 8.15937L8.61044 8.50042L10.2173 12.9295L11.1574 12.5884ZM8.61044 8.15937L7.00355 12.5884L7.94359 12.9295L9.55048 8.50042L8.61044 8.15937ZM7.47357 12.2589H2.49219V13.2589H7.47357V12.2589ZM2.21413 13.1745L6.31172 15.9163L6.86783 15.0852L2.77024 12.3434L2.21413 13.1745ZM6.11975 15.3302L4.51286 19.7592L5.4529 20.1003L7.05979 15.6712L6.11975 15.3302ZM5.26093 20.3453L9.35852 17.6035L8.80241 16.7724L4.70482 19.5142L5.26093 20.3453ZM9.35479 17.606L11.9258 15.9187L11.3772 15.0827L8.80613 16.7699L9.35479 17.606ZM11.9258 15.9187L16.1038 13.177L15.5551 12.3409L11.3772 15.0827L11.9258 15.9187ZM9.2802 17.7439L12.1726 17.0408L11.9364 16.0691L9.04402 16.7722L9.2802 17.7439ZM11.5826 16.7201L12.7877 20.1649L13.7316 19.8347L12.5265 16.3899L11.5826 16.7201ZM13.5378 19.5842L9.44017 16.8425L8.88405 17.6736L12.9816 20.4154L13.5378 19.5842Z" fill="#00635B"/>
<path fill-rule="evenodd" clip-rule="evenodd" d="M39.1654 12.7589H34.0845L32.4967 8.3299L30.909 12.7589H25.8281L29.8769 15.5007L28.2892 19.9297L32.338 17.188L34.8784 15.5007L39.1654 12.7589ZM32.5744 17.2579L35.4324 16.5549L36.6232 19.9997L32.5744 17.2579Z" fill="#00635B"/>
<path d="M39.1654 12.7589L39.4348 13.1801L40.8752 12.2589H39.1654V12.7589ZM34.0845 12.7589L33.6138 12.9277L33.7326 13.2589H34.0845V12.7589ZM32.4967 8.3299L32.9674 8.16116L32.4967 6.84824L32.0261 8.16116L32.4967 8.3299ZM30.909 12.7589V13.2589H31.2609L31.3796 12.9277L30.909 12.7589ZM25.8281 12.7589V12.2589H24.1981L25.5478 13.1729L25.8281 12.7589ZM29.8769 15.5007L30.3476 15.6694L30.4785 15.3042L30.1573 15.0867L29.8769 15.5007ZM28.2892 19.9297L27.8185 19.761L27.3018 21.2022L28.5695 20.3438L28.2892 19.9297ZM32.338 17.188L32.0613 16.7714L32.0576 16.774L32.338 17.188ZM34.8784 15.5007L34.609 15.0794L34.6018 15.0842L34.8784 15.5007ZM32.5744 17.2579L32.455 16.7724L31.3625 17.0411L32.294 17.6719L32.5744 17.2579ZM35.4324 16.5549L35.9049 16.3916L35.7559 15.9604L35.3129 16.0694L35.4324 16.5549ZM36.6232 19.9997L36.3428 20.4137L37.5865 21.2559L37.0958 19.8364L36.6232 19.9997ZM39.1654 12.2589H34.0845V13.2589H39.1654V12.2589ZM34.5552 12.5902L32.9674 8.16116L32.0261 8.49863L33.6138 12.9277L34.5552 12.5902ZM32.0261 8.16116L30.4383 12.5902L31.3796 12.9277L32.9674 8.49863L32.0261 8.16116ZM30.909 12.2589H25.8281V13.2589H30.909V12.2589ZM25.5478 13.1729L29.5966 15.9147L30.1573 15.0867L26.1085 12.3449L25.5478 13.1729ZM29.4063 15.332L27.8185 19.761L28.7598 20.0985L30.3476 15.6694L29.4063 15.332ZM28.5695 20.3438L32.6183 17.602L32.0576 16.774L28.0088 19.5157L28.5695 20.3438ZM32.6146 17.6045L35.155 15.9172L34.6018 15.0842L32.0613 16.7715L32.6146 17.6045ZM35.1478 15.9219L39.4348 13.1801L38.896 12.3377L34.609 15.0795L35.1478 15.9219ZM32.6938 17.7435L35.5518 17.0404L35.3129 16.0694L32.455 16.7724L32.6938 17.7435ZM34.9598 16.7183L36.1506 20.1631L37.0958 19.8364L35.9049 16.3916L34.9598 16.7183ZM36.9036 19.5857L32.8547 16.8439L32.294 17.6719L36.3428 20.4137L36.9036 19.5857Z" fill="#00635B"/>
<path fill-rule="evenodd" clip-rule="evenodd" d="M62.5052 12.7589H57.4738L55.8765 8.3299L54.2792 12.7589H49.168L53.241 15.5007L51.6437 19.9297L55.7168 17.188L58.2724 15.5007L62.5052 12.7589ZM55.8789 17.258L58.754 16.555L59.952 19.9998L55.8789 17.258Z" fill="#00635B"/>
<path d="M62.5052 12.7589L62.777 13.1786L64.1968 12.2589H62.5052V12.7589ZM57.4738 12.7589L57.0034 12.9286L57.1226 13.2589H57.4738V12.7589ZM55.8765 8.3299L56.3469 8.16027L55.8765 6.85606L55.4062 8.16027L55.8765 8.3299ZM54.2792 12.7589V13.2589H54.6304L54.7496 12.9286L54.2792 12.7589ZM49.168 12.7589V12.2589H47.5298L48.8888 13.1737L49.168 12.7589ZM53.241 15.5007L53.7114 15.6703L53.8436 15.3036L53.5202 15.0859L53.241 15.5007ZM51.6437 19.9297L51.1734 19.7601L50.6548 21.1982L51.923 20.3445L51.6437 19.9297ZM55.7168 17.188L55.4413 16.7707L55.4376 16.7732L55.7168 17.188ZM58.2724 15.5007L58.0006 15.081L57.997 15.0834L58.2724 15.5007ZM55.8789 17.258L55.7601 16.7723L54.6612 17.041L55.5997 17.6728L55.8789 17.258ZM58.754 16.555L59.2263 16.3908L59.0769 15.9613L58.6352 16.0693L58.754 16.555ZM59.952 19.9998L59.6727 20.4146L60.9168 21.252L60.4242 19.8356L59.952 19.9998ZM62.5052 12.2589H57.4738V13.2589H62.5052V12.2589ZM57.9441 12.5893L56.3469 8.16027L55.4062 8.49952L57.0034 12.9286L57.9441 12.5893ZM55.4062 8.16027L53.8089 12.5893L54.7496 12.9286L56.3469 8.49952L55.4062 8.16027ZM54.2792 12.2589H49.168V13.2589H54.2792V12.2589ZM48.8888 13.1737L52.9618 15.9155L53.5202 15.0859L49.4472 12.3442L48.8888 13.1737ZM52.7707 15.3311L51.1734 19.7601L52.1141 20.0994L53.7114 15.6703L52.7707 15.3311ZM51.923 20.3445L55.996 17.6027L55.4376 16.7732L51.3645 19.515L51.923 20.3445ZM55.9923 17.6052L58.5479 15.918L57.997 15.0834L55.4413 16.7707L55.9923 17.6052ZM58.5443 15.9204L62.777 13.1786L62.2334 12.3393L58.0006 15.0811L58.5443 15.9204ZM55.9977 17.7437L58.8728 17.0407L58.6352 16.0693L55.7601 16.7723L55.9977 17.7437ZM58.2817 16.7192L59.4797 20.164L60.4242 19.8356L59.2263 16.3908L58.2817 16.7192ZM60.2312 19.585L56.1581 16.8432L55.5997 17.6728L59.6727 20.4146L60.2312 19.585Z" fill="#00635B"/>
<path fill-rule="evenodd" clip-rule="evenodd" d="M27.4974 30.7587H22.4165L20.8288 26.3297L19.241 30.7587H14.1602L18.209 33.5005L16.6212 37.9295L20.67 35.1877L23.2104 33.5005L27.4974 30.7587ZM20.9064 35.2577L23.7644 34.5547L24.9552 37.9995L20.9064 35.2577Z" fill="#00635B"/>
<path d="M27.4974 30.7587L27.7668 31.1799L29.2072 30.2587H27.4974V30.7587ZM22.4165 30.7587L21.9459 30.9274L22.0646 31.2587H22.4165V30.7587ZM20.8288 26.3297L21.2994 26.1609L20.8288 24.848L20.3581 26.1609L20.8288 26.3297ZM19.241 30.7587V31.2587H19.5929L19.7117 30.9274L19.241 30.7587ZM14.1602 30.7587V30.2587H12.5301L13.8798 31.1727L14.1602 30.7587ZM18.209 33.5005L18.6796 33.6692L18.8106 33.304L18.4893 33.0865L18.209 33.5005ZM16.6212 37.9295L16.1505 37.7608L15.6339 39.202L16.9016 38.3435L16.6212 37.9295ZM20.67 35.1877L20.3934 34.7712L20.3896 34.7737L20.67 35.1877ZM23.2104 33.5005L22.941 33.0792L22.9338 33.084L23.2104 33.5005ZM20.9064 35.2577L20.787 34.7722L19.6945 35.0409L20.6261 35.6717L20.9064 35.2577ZM23.7644 34.5547L24.237 34.3913L24.0879 33.9602L23.645 34.0691L23.7644 34.5547ZM24.9552 37.9995L24.6749 38.4135L25.9185 39.2557L25.4278 37.8361L24.9552 37.9995ZM27.4974 30.2587H22.4165V31.2587H27.4974V30.2587ZM22.8872 30.59L21.2994 26.1609L20.3581 26.4984L21.9459 30.9274L22.8872 30.59ZM20.3581 26.1609L18.7703 30.59L19.7117 30.9274L21.2994 26.4984L20.3581 26.1609ZM19.241 30.2587H14.1602V31.2587H19.241V30.2587ZM13.8798 31.1727L17.9286 33.9145L18.4893 33.0865L14.4405 30.3447L13.8798 31.1727ZM17.7383 33.3317L16.1505 37.7608L17.0919 38.0982L18.6796 33.6692L17.7383 33.3317ZM16.9016 38.3435L20.9504 35.6017L20.3896 34.7737L16.3408 37.5155L16.9016 38.3435ZM20.9466 35.6042L23.4871 33.917L22.9338 33.084L20.3934 34.7712L20.9466 35.6042ZM23.4798 33.9217L27.7668 31.1799L27.228 30.3375L22.941 33.0792L23.4798 33.9217ZM21.0258 35.7432L23.8838 35.0402L23.645 34.0691L20.787 34.7722L21.0258 35.7432ZM23.2918 34.718L24.4827 38.1628L25.4278 37.8361L24.237 34.3913L23.2918 34.718ZM25.2356 37.5855L21.1868 34.8437L20.6261 35.6717L24.6749 38.4135L25.2356 37.5855Z" fill="#00635B"/>
<path fill-rule="evenodd" clip-rule="evenodd" d="M50.8333 30.7587H45.7525L44.1647 26.3297L42.5769 30.7587H37.4961L41.5449 33.5005L39.9571 37.9295L44.0059 35.1877L46.5464 33.5005L50.8333 30.7587ZM44.2424 35.2577L47.1003 34.5547L48.2912 37.9995L44.2424 35.2577Z" fill="#00635B"/>
<path d="M50.8333 30.7587L51.1027 31.1799L52.5431 30.2587H50.8333V30.7587ZM45.7525 30.7587L45.2818 30.9274L45.4006 31.2587H45.7525V30.7587ZM44.1647 26.3297L44.6354 26.1609L44.1647 24.848L43.694 26.1609L44.1647 26.3297ZM42.5769 30.7587V31.2587H42.9289L43.0476 30.9274L42.5769 30.7587ZM37.4961 30.7587V30.2587H35.866L37.2157 31.1727L37.4961 30.7587ZM41.5449 33.5005L42.0156 33.6692L42.1465 33.304L41.8253 33.0865L41.5449 33.5005ZM39.9571 37.9295L39.4865 37.7608L38.9698 39.202L40.2375 38.3435L39.9571 37.9295ZM44.0059 35.1877L43.7293 34.7712L43.7256 34.7737L44.0059 35.1877ZM46.5464 33.5005L46.2769 33.0792L46.2697 33.084L46.5464 33.5005ZM44.2424 35.2577L44.1229 34.7722L43.0305 35.0409L43.962 35.6717L44.2424 35.2577ZM47.1003 34.5547L47.5729 34.3913L47.4239 33.9602L46.9809 34.0691L47.1003 34.5547ZM48.2912 37.9995L48.0108 38.4135L49.2544 39.2557L48.7637 37.8361L48.2912 37.9995ZM50.8333 30.2587H45.7525V31.2587H50.8333V30.2587ZM46.2232 30.59L44.6354 26.1609L43.694 26.4984L45.2818 30.9274L46.2232 30.59ZM43.694 26.1609L42.1063 30.59L43.0476 30.9274L44.6354 26.4984L43.694 26.1609ZM42.5769 30.2587H37.4961V31.2587H42.5769V30.2587ZM37.2157 31.1727L41.2645 33.9145L41.8253 33.0865L37.7765 30.3447L37.2157 31.1727ZM41.0742 33.3317L39.4865 37.7608L40.4278 38.0982L42.0156 33.6692L41.0742 33.3317ZM40.2375 38.3435L44.2863 35.6017L43.7256 34.7737L39.6768 37.5155L40.2375 38.3435ZM44.2826 35.6042L46.823 33.917L46.2697 33.084L43.7293 34.7712L44.2826 35.6042ZM46.8158 33.9217L51.1027 31.1799L50.5639 30.3375L46.277 33.0792L46.8158 33.9217ZM44.3618 35.7432L47.2198 35.0402L46.9809 34.0691L44.1229 34.7722L44.3618 35.7432ZM46.6278 34.718L47.8186 38.1628L48.7637 37.8361L47.5729 34.3913L46.6278 34.718ZM48.5715 37.5855L44.5227 34.8437L43.962 35.6717L48.0108 38.4135L48.5715 37.5855Z" fill="#00635B"/>
</svg>
