<svg xmlns="http://www.w3.org/2000/svg" width="15" height="16" fill="none"><mask id="a" width="15" height="8" x="0" y="8" maskUnits="userSpaceOnUse" style="mask-type:luminance"><path fill="#fff" fill-rule="evenodd" d="M5.53 8h3.966c1.511 0 2.887.624 3.885 1.628A5.55 5.55 0 0 1 15 13.56V16H0v-2.44c0-1.546.62-2.929 1.619-3.932A5.49 5.49 0 0 1 5.53 8m3.966 1.248H5.531a4.4 4.4 0 0 0-3.05 1.247 4.43 4.43 0 0 0-1.24 3.065v1.22h12.545v-1.22a4.34 4.34 0 0 0-1.268-3.065c-.782-.758-1.834-1.247-3.022-1.247" clip-rule="evenodd"/></mask><g mask="url(#a)"><mask id="b" width="854" height="3369" x="-559" y="-37" maskUnits="userSpaceOnUse" style="mask-type:alpha"><path fill="#000" d="M-558.745 3331.82h853.742V-36.23h-853.742z"/></mask><g mask="url(#b)"><path fill="#151515" d="M-3.125 4.811h21.25V19.19h-21.25z"/></g></g><mask id="c" width="9" height="8" x="3" y="0" maskUnits="userSpaceOnUse" style="mask-type:luminance"><path fill="#fff" fill-rule="evenodd" d="M7.486 0c1.145 0 2.178.437 2.904 1.174a3.85 3.85 0 0 1 1.201 2.813c0 1.119-.446 2.13-1.2 2.84C9.663 7.562 8.63 8 7.485 8 6.37 8 5.336 7.563 4.61 6.826c-.755-.71-1.2-1.72-1.2-2.84 0-1.092.445-2.102 1.2-2.812C5.336.437 6.369 0 7.486 0m2.01 2.048c-.502-.52-1.228-.82-2.01-.82s-1.48.3-1.983.82a2.6 2.6 0 0 0-.838 1.939c0 .792.307 1.474.838 1.965.503.52 1.2.82 1.983.82.782 0 1.508-.3 2.01-.82a2.73 2.73 0 0 0 .838-1.965c0-.765-.335-1.448-.838-1.939" clip-rule="evenodd"/></mask><g mask="url(#c)"><mask id="d" width="885" height="3392" x="-579" y="-36" maskUnits="userSpaceOnUse" style="mask-type:alpha"><path fill="#000" d="M-578.64 3355.25h883.718V-35.96H-578.64z"/></mask><g mask="url(#d)"><path fill="#151515" d="M.174-3.21h14.65V11.21H.175z"/></g></g></svg>